<svg xmlns="http://www.w3.org/2000/svg" width="1431" height="350" viewBox="0 0 1431 350">
<g>
<path d="M 205.50 339.57 C187.63,335.08 164.18,320.91 146.32,303.82 C140.99,298.72 137.34,295.99 135.82,295.97 C123.28,295.83 104.15,292.17 90.70,287.34 C63.38,277.52 40.29,257.54 27.33,232.46 C15.92,210.41 9.44,174.21 11.95,146.67 C14.52,118.50 21.56,95.54 33.17,77.50 C51.15,49.53 78.02,31.95 113.48,24.94 C123.21,23.02 126.68,22.83 143.98,23.29 C165.43,23.85 174.41,25.35 190.50,31.04 C201.82,35.05 207.43,37.85 217.50,44.53 C237.87,58.03 253.45,79.39 261.96,105.50 C263.22,109.35 264.59,112.88 265.02,113.35 C265.44,113.81 267.67,111.70 269.97,108.66 C274.91,102.11 279.14,98.71 286.26,95.57 C294.51,91.93 304.06,90.70 314.26,91.97 C331.14,94.07 340.75,98.53 347.01,107.17 C353.13,115.63 353.31,117.12 353.93,166.20 C354.41,203.46 354.66,212.41 356.67,212.90 C354.74,212.53 354.40,205.15 353.94,177.70 C353.63,159.44 353.30,146.16 353.19,148.18 C353.09,150.21 352.53,153.10 351.96,154.61 C350.45,158.57 349.77,179.29 350.93,185.59 C351.48,188.55 352.19,195.13 352.52,200.23 C353.30,212.26 353.65,213.78 355.75,214.23 C358.92,214.91 361.01,213.80 361.59,211.13 C361.91,209.68 362.35,207.90 362.58,207.17 C363.16,205.32 361.97,201.00 360.89,201.00 C360.40,201.00 360.00,203.19 360.00,205.88 C360.00,209.05 359.46,211.20 358.46,212.04 C359.80,210.92 360.00,205.34 360.00,168.32 C360.00,133.40 360.28,124.68 361.57,119.00 C364.32,106.89 372.05,99.28 386.50,94.42 C396.75,90.98 410.42,90.77 422.25,93.88 C441.84,99.03 449.86,109.07 452.10,131.25 C452.76,137.71 453.65,143.00 454.08,143.00 C454.52,143.00 457.31,139.26 460.28,134.70 C474.80,112.43 493.47,99.54 520.67,93.01 C528.87,91.04 531.75,90.85 547.67,91.27 C565.50,91.73 572.48,92.87 584.54,97.28 C595.06,101.13 608.61,109.51 615.55,116.45 C619.14,120.04 626.45,129.92 629.97,135.95 C634.08,142.99 635.89,144.55 636.12,141.25 C636.19,140.29 636.16,124.20 636.04,105.50 C635.70,49.27 637.67,40.32 652.62,29.94 C661.40,23.85 681.84,21.11 696.20,24.11 C709.48,26.87 719.41,34.46 724.89,46.00 C727.49,51.49 727.50,51.59 728.00,83.17 C728.28,100.59 728.81,115.15 729.20,115.53 C729.58,115.91 734.45,111.86 740.03,106.52 C747.33,99.53 751.97,95.97 756.59,93.81 C762.59,91.00 763.63,90.83 772.85,91.16 C781.99,91.48 783.25,91.78 790.39,95.41 C795.67,98.09 800.20,101.45 804.88,106.15 C808.62,109.91 811.97,112.69 812.34,112.33 C812.70,111.96 813.01,99.93 813.02,85.58 C813.04,57.11 814.02,49.04 818.38,41.64 C826.03,28.61 837.82,22.99 857.42,23.01 C878.78,23.03 892.76,29.54 899.75,42.71 C904.28,51.25 905.00,57.39 905.00,87.68 C905.00,113.11 905.12,115.00 906.76,115.00 C907.73,115.00 912.56,110.93 917.50,105.95 C923.77,99.61 928.32,95.98 932.65,93.85 C938.49,90.98 939.38,90.83 948.67,91.15 C957.28,91.46 959.35,91.90 965.35,94.74 C973.81,98.75 983.99,108.73 989.00,117.93 C990.93,121.46 992.95,124.49 993.50,124.66 C994.05,124.84 996.08,122.24 998.00,118.88 C1003.75,108.88 1010.05,104.28 1025.70,98.66 C1039.81,93.60 1053.68,91.52 1073.50,91.51 C1092.35,91.50 1100.99,92.68 1115.00,97.17 C1132.71,102.84 1146.74,114.32 1154.82,129.75 C1156.83,133.58 1158.81,136.83 1159.67,137.74 C1159.47,137.73 1159.28,137.68 1159.11,137.57 C1157.90,136.82 1157.48,143.15 1158.67,144.33 C1160.85,146.51 1163.36,142.93 1162.48,138.91 C1162.02,136.81 1161.52,136.16 1161.00,136.99 C1160.89,137.18 1160.74,137.34 1160.57,137.46 C1160.94,136.80 1161.32,135.61 1161.55,134.25 C1167.43,99.91 1178.41,77.20 1198.82,57.12 C1214.36,41.83 1235.36,30.54 1256.50,26.11 C1268.84,23.53 1274.29,23.00 1288.42,23.02 C1328.00,23.06 1359.32,35.03 1382.23,58.86 C1399.04,76.33 1409.38,96.59 1415.24,123.50 C1417.10,132.08 1417.42,136.70 1417.44,156.00 C1417.46,170.37 1416.99,181.21 1416.15,186.00 C1411.69,211.22 1403.30,231.87 1390.87,248.20 C1388.23,251.66 1386.06,255.03 1386.04,255.67 C1386.02,256.31 1388.56,258.65 1391.68,260.87 C1402.26,268.38 1406.72,278.45 1405.66,292.46 C1405.32,296.88 1404.38,302.65 1403.56,305.28 C1399.33,318.91 1389.04,331.94 1378.00,337.65 C1370.31,341.63 1358.58,342.19 1349.67,339.00 C1331.83,332.61 1309.83,318.41 1292.81,302.28 L 1285.13 295.00 L 1278.31 294.98 C1262.78,294.94 1243.66,289.95 1226.94,281.58 C1201.04,268.61 1181.90,247.92 1171.89,222.07 C1169.53,215.98 1167.25,211.00 1166.80,211.00 C1166.36,211.00 1165.98,212.91 1165.96,215.25 C1165.94,217.59 1165.83,230.98 1165.71,245.00 L 1165.50 270.50 L 1162.69 276.22 C1157.64,286.51 1147.47,293.04 1132.35,295.70 C1118.93,298.06 1103.90,295.53 1095.48,289.51 C1093.68,288.22 1092.90,288.32 1088.19,290.51 C1071.90,298.05 1049.94,299.57 1030.57,294.49 C1018.25,291.25 1002.99,281.88 997.12,273.94 C994.29,270.12 992.64,270.23 990.05,274.42 C986.52,280.13 976.44,288.67 968.75,292.47 C946.59,303.42 926.12,296.76 909.42,273.16 C907.81,270.90 905.96,269.03 905.30,269.02 C904.64,269.01 903.16,271.11 902.02,273.69 C899.18,280.10 895.73,284.41 890.72,287.80 C880.17,294.92 865.28,298.06 851.03,296.17 C835.30,294.07 826.15,289.39 819.39,279.98 C817.42,277.24 815.43,275.00 814.96,275.00 C814.50,275.00 811.73,277.54 808.81,280.65 C796.85,293.38 780.56,299.68 766.38,297.07 C754.44,294.86 745.01,288.26 734.98,275.06 C732.45,271.73 729.95,268.92 728.92,268.19 C729.21,268.31 729.55,268.50 729.97,268.76 C731.75,269.86 732.00,269.77 732.00,268.04 C732.00,265.91 729.27,263.99 727.25,264.72 C726.56,264.96 726.01,266.37 726.02,267.83 C726.03,269.91 726.24,270.17 726.98,269.00 C727.45,268.26 727.83,267.95 728.40,268.03 C727.71,268.37 726.08,271.14 724.62,274.49 C723.07,278.05 720.04,282.72 717.90,284.87 C701.69,301.08 662.04,300.51 646.44,283.84 C639.18,276.07 637.74,271.78 637.07,255.83 C636.76,248.31 636.20,241.86 635.83,241.49 C635.46,241.13 634.53,241.88 633.75,243.16 C632.98,244.45 630.13,249.26 627.42,253.86 C616.96,271.63 601.57,284.37 582.05,291.41 C569.23,296.04 560.72,297.40 545.00,297.35 C518.46,297.27 498.26,290.76 480.16,276.45 C472.15,270.11 462.21,258.24 458.00,249.99 C456.98,248.00 455.44,245.78 454.57,245.06 C454.49,244.99 454.41,244.93 454.34,244.87 C454.85,245.02 454.86,244.34 454.57,242.75 C454.34,241.51 454.12,240.16 454.07,239.75 C454.03,239.34 453.33,239.00 452.50,239.00 C450.54,239.00 450.58,241.44 452.57,243.43 C453.02,243.88 453.39,244.22 453.69,244.47 C453.09,244.26 452.96,244.98 452.90,247.13 C452.15,271.34 451.18,275.36 444.26,283.06 C440.79,286.92 437.47,289.30 432.00,291.83 C425.16,295.00 423.49,295.34 413.00,295.77 C399.69,296.32 393.09,295.22 384.03,290.94 L 377.69 287.94 L 370.18 291.07 C357.57,296.32 352.61,297.31 338.50,297.39 C324.70,297.48 318.81,296.50 308.00,292.33 C282.48,282.49 266.70,259.16 264.48,228.00 C264.06,222.14 263.72,218.73 263.28,216.88 C263.44,216.81 263.67,216.52 264.00,216.00 C265.60,213.53 265.25,206.00 263.54,206.00 C261.60,206.00 260.00,209.13 260.00,212.90 C260.00,215.19 260.37,215.80 261.50,215.36 C261.59,215.33 261.67,215.30 261.75,215.28 C260.84,216.36 258.56,220.43 256.19,225.25 C253.42,230.89 248.65,239.10 245.58,243.50 C237.23,255.47 237.09,255.85 240.04,258.17 C249.12,265.32 251.12,267.49 254.00,273.35 C265.39,296.48 249.29,333.05 224.86,339.55 C218.42,341.26 212.25,341.27 205.50,339.57 ZM 207.56 323.86 C219.80,325.43 222.04,325.24 226.45,322.26 C231.85,318.60 234.60,315.50 237.75,309.50 C240.16,304.90 240.38,303.49 240.44,292.00 C240.51,277.65 239.50,274.48 233.99,271.81 C232.07,270.89 226.56,268.30 221.75,266.05 C216.94,263.81 213.00,261.55 213.00,261.03 C213.00,259.77 224.25,246.37 227.38,243.92 C229.98,241.87 236.40,231.22 239.08,224.50 C239.96,222.30 241.63,218.48 242.78,216.00 C248.80,203.07 251.47,192.10 252.89,174.42 C254.09,159.49 252.62,127.84 250.36,120.00 C247.78,111.08 238.19,88.94 234.32,83.00 C230.28,76.80 220.12,67.06 209.58,59.28 C205.68,56.41 202.05,53.68 201.50,53.22 C197.65,50.01 185.48,43.88 180.50,42.64 C171.20,40.33 154.30,38.91 133.50,38.69 C115.79,38.51 114.03,38.66 107.50,40.90 C98.17,44.09 86.43,49.57 75.76,55.71 C64.55,62.17 59.38,66.18 54.88,71.90 C50.39,77.60 37.63,102.59 38.49,103.98 C38.83,104.54 38.67,105.00 38.13,105.00 C35.56,105.00 29.48,126.96 28.12,141.10 C26.89,154.07 27.87,187.18 29.68,193.50 C30.46,196.25 31.37,199.62 31.70,201.00 C33.75,209.76 49.73,240.99 55.76,248.03 C61.74,255.02 68.82,259.69 90.00,270.62 C104.34,278.01 112.05,280.01 129.57,280.87 L 143.91 281.58 L 151.21 288.64 C155.22,292.52 159.92,296.44 161.66,297.33 C165.57,299.34 179.61,309.33 183.00,312.50 C188.13,317.31 200.27,322.92 207.56,323.86 ZM 1358.65 324.87 C1362.42,325.35 1366.31,325.80 1367.30,325.87 C1371.87,326.19 1382.73,317.40 1386.24,310.54 C1387.85,307.38 1388.41,303.98 1388.78,294.86 C1389.05,288.46 1388.96,281.57 1388.58,279.55 C1387.75,275.15 1382.55,269.10 1377.30,266.45 C1371.84,263.69 1367.00,258.97 1367.00,256.40 C1367.00,254.45 1372.03,247.28 1375.34,244.50 C1379.14,241.31 1386.99,228.64 1388.35,223.50 C1388.64,222.40 1390.04,218.35 1391.46,214.50 C1399.57,192.50 1401.79,184.38 1402.93,172.50 C1404.14,159.93 1404.05,158.74 1400.07,134.00 C1395.38,104.92 1394.19,101.15 1385.66,88.63 C1379.80,80.03 1364.30,62.56 1358.93,58.50 C1351.43,52.84 1332.99,45.43 1315.50,41.03 C1304.80,38.34 1301.86,38.01 1288.40,38.01 C1274.95,38.00 1272.05,38.32 1261.90,40.93 C1246.08,44.99 1237.06,48.63 1222.00,57.04 C1205.48,66.28 1188.56,92.83 1178.38,125.50 C1175.89,133.49 1175.54,136.36 1175.19,151.19 C1174.87,164.95 1175.18,170.06 1176.94,180.37 C1179.14,193.25 1183.22,208.83 1184.68,209.90 C1185.13,210.23 1185.63,211.62 1185.78,212.99 C1185.94,214.37 1188.51,220.45 1191.49,226.52 C1197.98,239.71 1206.21,248.86 1220.75,259.03 C1230.94,266.15 1232.82,267.25 1241.55,271.18 C1258.88,278.98 1262.66,279.95 1278.50,280.59 C1285.65,280.88 1292.44,281.31 1293.58,281.54 C1294.72,281.77 1299.46,285.68 1304.12,290.23 C1319.38,305.15 1329.21,314.11 1332.88,316.43 C1338.10,319.72 1350.70,323.85 1358.65,324.87 ZM 763.50 281.46 C767.28,283.35 782.75,283.51 785.14,281.69 C791.68,276.71 801.54,266.82 803.27,263.50 C804.95,260.28 805.34,257.80 805.26,250.82 C805.14,240.52 803.39,236.02 797.95,232.08 C792.81,228.36 784.27,218.42 781.46,212.89 C780.17,210.36 776.72,206.17 773.81,203.58 C762.06,193.17 761.42,189.71 769.89,182.26 C773.13,179.41 778.28,173.50 781.34,169.14 C784.40,164.78 789.62,158.81 792.95,155.88 C800.27,149.44 801.40,146.51 800.76,135.62 C800.18,125.83 796.57,116.75 791.72,112.89 C784.53,107.19 769.35,104.45 761.52,107.44 C757.94,108.80 755.76,110.77 751.06,116.83 C747.80,121.05 741.91,127.38 737.98,130.89 C734.05,134.40 729.63,139.18 728.16,141.50 C723.24,149.30 717.83,155.00 715.34,155.00 C713.85,155.00 712.93,154.36 712.81,153.25 C712.71,152.29 712.59,130.12 712.56,104.00 C712.49,57.61 712.44,56.39 710.35,51.85 C707.71,46.13 702.27,42.68 690.79,39.44 C681.16,36.72 674.05,37.07 666.36,40.65 C659.30,43.93 656.32,46.47 653.78,51.34 C651.67,55.41 651.61,56.54 651.27,106.00 C651.07,133.77 650.88,159.65 650.85,163.50 C650.81,167.35 650.82,177.70 650.86,186.50 C650.90,195.30 650.94,204.75 650.95,207.50 C650.95,210.25 651.18,223.85 651.45,237.73 C652.00,266.08 652.20,266.96 659.86,274.63 C665.08,279.84 668.93,280.88 683.50,281.02 C700.90,281.19 705.58,279.61 710.75,271.80 C713.46,267.70 713.50,267.43 713.50,251.57 C713.50,242.73 713.13,232.87 712.67,229.66 C711.90,224.32 711.99,223.85 713.65,224.17 C714.66,224.37 716.82,227.09 718.52,230.31 C720.21,233.51 723.70,237.92 726.32,240.16 C729.20,242.62 732.90,247.43 735.72,252.36 C739.17,258.40 742.97,263.01 750.43,270.23 C755.97,275.58 761.85,280.63 763.50,281.46 ZM 947.46 283.01 C958.38,284.61 962.23,283.44 967.79,276.84 C969.20,275.16 970.86,273.27 971.47,272.64 C973.80,270.23 978.72,262.24 979.83,259.05 C981.46,254.38 981.29,246.63 979.46,242.26 C977.07,236.52 965.04,221.14 953.21,208.67 C942.07,196.94 939.23,192.06 940.97,187.65 C941.44,186.47 944.37,183.02 947.48,180.00 C950.59,176.98 954.78,172.25 956.78,169.50 C958.78,166.75 962.85,161.80 965.81,158.50 C968.78,155.20 972.60,150.49 974.30,148.03 C977.15,143.92 977.40,142.91 977.36,135.53 C977.34,130.47 976.73,126.13 975.73,123.78 C973.57,118.75 965.68,111.39 959.12,108.28 C951.04,104.45 943.98,105.36 933.67,111.56 C927.12,115.50 925.17,117.33 921.34,123.13 C918.84,126.93 914.75,131.71 912.25,133.76 C909.75,135.80 905.33,140.87 902.42,145.02 C889.71,163.16 889.30,161.93 889.68,107.00 C890.02,58.33 889.56,54.19 882.99,46.72 C876.89,39.80 870.85,37.63 857.96,37.72 C849.45,37.78 846.56,38.20 842.95,39.89 C836.95,42.72 833.18,46.39 830.62,51.91 C830.37,52.46 830.14,52.84 829.94,53.23 C828.27,56.46 828.40,60.62 828.07,176.50 C827.97,212.80 827.46,246.66 826.95,251.75 C826.17,259.47 826.28,261.66 827.63,265.02 C829.76,270.36 835.69,275.27 844.39,278.89 C861.89,286.17 878.03,282.87 886.32,270.32 L 889.50 265.50 L 889.56 248.00 C889.63,226.39 889.67,226.00 891.46,226.00 C893.12,226.00 898.00,230.91 898.00,232.58 C898.00,233.19 898.95,234.55 900.11,235.60 C901.27,236.64 903.29,239.63 904.61,242.23 C911.31,255.44 916.04,261.27 929.98,273.50 C937.82,280.38 940.88,282.04 947.46,283.01 ZM 545.66 282.33 C545.76,282.42 549.58,282.46 554.17,282.41 C572.63,282.22 587.91,276.17 598.95,264.67 C602.20,261.28 607.96,255.30 611.75,251.39 C617.73,245.20 618.98,243.23 621.31,236.37 C622.79,232.02 624.00,227.08 624.00,225.39 C624.00,223.70 624.72,220.11 625.59,217.41 C626.66,214.10 627.36,206.98 627.72,195.58 C628.32,176.88 628.29,176.69 619.36,150.48 C616.02,140.67 615.73,140.22 605.85,129.69 C594.96,118.06 593.19,116.89 579.38,112.15 C561.63,106.07 548.73,104.70 531.32,107.06 C519.79,108.62 504.30,113.51 498.51,117.42 C479.00,130.56 465.25,151.52 460.05,176.00 C458.28,184.35 460.16,216.34 462.94,225.19 C466.66,237.04 478.50,255.59 487.71,264.02 C498.12,273.55 517.42,280.66 535.50,281.63 C541.00,281.92 545.57,282.24 545.66,282.33 ZM 323.30 282.95 C329.03,284.08 340.05,284.12 348.50,283.04 C354.07,282.32 357.89,280.90 367.22,276.09 C374.89,272.13 379.55,270.27 380.72,270.70 C381.70,271.07 384.75,272.83 387.50,274.62 C390.62,276.65 394.75,278.26 398.50,278.90 C419.53,282.51 424.73,282.11 429.67,276.47 C434.96,270.43 436.20,266.63 437.12,253.56 C437.59,246.93 437.98,239.70 437.98,237.50 C437.98,205.74 437.06,138.83 436.54,132.62 C436.16,128.15 435.03,122.62 434.02,120.32 C430.73,112.86 421.39,108.72 405.00,107.46 C395.28,106.72 385.80,108.61 380.79,112.31 C375.17,116.46 374.88,118.39 374.56,154.00 C374.24,190.81 372.93,210.79 370.45,216.59 C366.06,226.85 366.31,226.59 359.86,227.79 C354.48,228.79 353.43,228.69 349.68,226.86 C340.18,222.20 337.82,214.56 340.02,195.60 C340.74,189.50 341.61,179.55 341.97,173.50 C342.70,161.00 341.42,131.43 339.89,125.66 C338.38,119.96 331.64,113.22 324.00,109.78 C318.33,107.22 316.32,106.84 308.29,106.84 C292.70,106.83 284.61,110.37 279.99,119.24 C278.10,122.87 277.81,124.92 277.92,133.98 C278.05,143.99 278.06,165.88 277.95,209.00 C277.92,219.73 278.36,230.84 278.92,233.71 C280.33,240.96 288.99,258.58 293.84,264.09 C296.07,266.62 301.63,271.17 306.20,274.22 C316.62,281.16 318.12,281.93 323.30,282.95 ZM 1035.10 280.79 C1038.62,281.18 1048.61,281.60 1057.31,281.72 C1071.70,281.91 1073.81,281.71 1080.95,279.45 C1085.27,278.09 1089.04,276.35 1089.33,275.58 C1089.62,274.82 1091.29,273.88 1093.03,273.49 C1095.68,272.91 1097.09,273.42 1101.79,276.65 L 1107.40 280.50 L 1119.93 280.34 C1135.34,280.13 1141.65,278.34 1147.55,272.47 L 1151.60 268.45 L 1151.39 226.47 C1151.09,170.19 1149.09,149.41 1142.67,136.13 C1140.68,131.99 1128.25,121.35 1118.20,115.17 C1110.01,110.14 1106.99,108.89 1098.81,107.12 C1093.48,105.96 1088.53,105.21 1087.81,105.45 C1087.09,105.68 1078.62,106.39 1069.00,107.02 C1038.78,108.99 1030.98,110.63 1020.95,117.13 C1014.72,121.17 1011.50,125.86 1009.43,133.94 C1006.25,146.39 1009.33,157.18 1017.29,161.46 C1021.18,163.55 1031.03,163.21 1044.00,160.55 C1054.89,158.31 1074.84,158.13 1080.50,160.21 C1085.13,161.92 1087.59,165.50 1086.67,169.16 C1086.05,171.66 1085.85,171.70 1071.77,172.69 C1060.36,173.49 1056.64,174.13 1053.19,175.89 C1050.82,177.11 1045.87,179.02 1042.19,180.14 C1031.55,183.38 1017.58,190.73 1013.23,195.37 C1008.38,200.55 1003.50,207.84 1004.34,208.67 C1004.69,209.02 1004.35,209.80 1003.58,210.40 C1001.22,212.28 999.00,222.37 999.02,231.15 C999.05,240.89 999.96,245.37 1004.06,256.01 C1009.40,269.86 1021.18,279.26 1035.10,280.79 ZM 159.00 215.30 C155.37,216.95 151.88,217.43 141.00,217.74 C128.66,218.10 127.13,217.94 123.23,215.95 C115.46,211.99 107.39,199.94 101.86,184.04 C97.37,171.14 97.46,141.53 102.02,131.22 C103.11,128.76 104.01,126.24 104.03,125.62 C104.08,123.95 108.15,115.98 110.99,112.00 C115.42,105.80 121.69,100.53 126.25,99.18 C133.34,97.09 155.22,99.06 161.78,102.39 C168.23,105.66 172.60,111.02 174.48,117.97 C175.30,121.01 177.07,127.10 178.40,131.50 C181.80,142.75 182.22,145.91 182.11,159.50 C181.99,175.87 178.81,187.92 170.26,204.50 C167.78,209.32 163.83,213.11 159.00,215.30 ZM 1299.59 218.04 C1292.68,221.50 1287.29,221.79 1278.99,219.13 C1266.80,215.23 1258.00,207.39 1258.00,200.43 C1258.00,197.64 1258.42,197.07 1260.86,196.53 C1262.64,196.14 1265.60,196.62 1268.70,197.80 C1271.44,198.84 1274.54,199.60 1275.59,199.49 C1280.58,198.97 1282.91,197.69 1283.86,194.96 C1284.66,192.67 1285.40,192.14 1287.61,192.30 C1290.00,192.47 1290.47,192.04 1291.16,189.00 C1292.71,182.10 1290.46,175.79 1283.00,166.14 C1279.23,161.26 1275.33,156.93 1274.32,156.51 C1273.32,156.09 1268.44,155.41 1263.48,155.01 C1256.65,154.45 1253.15,153.60 1249.05,151.53 C1236.49,145.16 1234.48,145.17 1230.06,151.61 C1228.80,153.46 1227.41,154.76 1226.99,154.49 C1225.67,153.68 1228.10,146.18 1230.52,143.57 C1232.66,141.27 1233.28,141.14 1239.76,141.68 C1245.08,142.13 1246.93,141.94 1247.61,140.88 C1248.65,139.27 1253.45,126.62 1255.64,119.75 C1256.77,116.20 1258.96,113.22 1264.32,107.92 C1274.34,98.04 1275.14,97.71 1287.90,98.25 C1296.89,98.63 1299.30,99.10 1303.79,101.38 C1319.30,109.27 1329.00,124.65 1329.00,141.36 C1329.00,144.79 1329.04,146.67 1328.14,147.48 C1327.01,148.49 1324.41,147.83 1318.43,146.45 C1310.48,144.60 1305.10,144.87 1303.66,147.17 C1302.50,149.01 1302.90,150.06 1307.93,158.50 C1309.57,161.25 1310.94,164.09 1310.96,164.80 C1310.98,165.52 1312.12,167.76 1313.49,169.77 C1317.23,175.27 1320.32,185.45 1319.76,190.41 C1319.10,196.30 1313.71,207.08 1309.26,211.42 C1307.19,213.43 1302.84,216.41 1299.59,218.04 ZM 151.79 201.10 C162.89,195.40 166.56,183.04 165.77,153.94 C165.41,140.72 164.90,136.23 163.19,131.00 C159.19,118.79 151.94,112.98 140.79,113.03 C123.45,113.11 115.01,127.03 115.01,155.50 C115.02,181.57 119.78,195.76 130.20,200.81 C135.99,203.62 146.59,203.76 151.79,201.10 ZM 553.25 225.06 C549.66,227.33 547.46,227.99 543.55,227.97 C533.91,227.91 530.99,224.42 525.13,205.93 C522.33,197.10 524.52,175.92 528.90,169.47 C534.41,161.35 544.95,157.40 551.79,160.90 C553.83,161.94 556.24,163.62 557.15,164.64 C560.30,168.20 565.14,192.95 564.31,201.26 C563.82,206.18 561.29,215.26 559.28,219.31 C558.52,220.85 555.80,223.44 553.25,225.06 ZM 1304.43 199.31 C1305.81,197.28 1307.48,193.23 1308.13,190.31 C1309.82,182.74 1308.11,176.28 1301.40,164.91 C1298.36,159.78 1295.37,153.66 1294.74,151.31 C1292.60,143.33 1296.61,138.34 1306.11,137.13 C1311.49,136.45 1311.50,136.45 1311.23,133.12 C1310.83,128.12 1307.11,120.27 1303.84,117.52 C1298.70,113.20 1290.92,111.98 1282.30,114.16 C1272.46,116.63 1264.98,128.40 1264.65,141.89 L 1264.50 148.27 L 1269.50 150.00 C1281.89,154.30 1291.25,161.73 1295.69,170.80 C1298.26,176.04 1298.51,177.56 1298.73,189.50 C1298.87,196.65 1298.98,202.61 1298.99,202.75 C1298.99,202.89 1299.66,203.00 1300.46,203.00 C1301.27,203.00 1303.06,201.34 1304.43,199.31 ZM 986.10 212.90 C987.22,208.84 989.52,202.94 991.20,199.78 C994.28,194.00 1002.77,184.37 1008.74,179.89 L 1011.99 177.46 L 1006.24 171.40 C1002.81,167.77 999.12,162.46 997.06,158.17 C995.42,154.77 993.69,151.92 992.87,151.22 C993.91,151.38 994.63,150.80 994.84,149.64 C995.18,147.68 993.23,145.74 991.80,146.62 C990.40,147.49 990.91,150.44 992.43,151.10 C991.64,151.48 988.96,154.59 986.24,158.31 C983.35,162.27 976.06,170.68 970.04,177.00 C964.02,183.32 959.07,189.35 959.05,190.39 C958.98,193.07 982.44,221.90 983.68,220.66 C983.88,220.45 984.97,216.96 986.10,212.90 ZM 812.97 192.00 C812.97,175.21 812.56,160.85 812.05,160.05 C811.93,159.85 811.81,159.69 811.66,159.62 C812.86,159.61 814.08,159.25 814.37,158.49 C814.64,157.78 814.30,156.43 813.61,155.49 C812.44,153.89 812.26,153.88 810.68,155.46 C809.76,156.39 809.00,157.67 809.00,158.32 C809.00,159.08 810.05,159.52 811.22,159.60 C809.77,160.02 805.54,164.50 788.25,182.91 C785.36,185.98 783.00,189.26 783.00,190.19 C783.00,191.79 806.39,221.09 809.78,223.75 C810.08,223.99 810.34,224.16 810.57,224.29 C810.02,224.14 809.51,224.16 809.23,224.43 C808.97,224.70 809.03,225.65 809.38,226.54 C810.04,228.26 812.13,228.11 812.73,226.31 C812.94,225.69 812.08,224.91 811.14,224.50 C811.54,224.53 811.84,224.29 812.18,223.75 C812.61,223.06 812.97,208.77 812.97,192.00 ZM 1074.52 234.41 C1073.24,234.73 1071.58,235.22 1070.84,235.50 C1070.10,235.78 1067.93,235.22 1066.00,234.25 C1063.41,232.96 1062.41,231.75 1062.17,229.63 C1061.90,227.23 1062.84,225.78 1067.76,221.00 C1072.75,216.14 1074.37,215.16 1078.09,214.76 C1080.97,214.44 1083.32,214.78 1084.87,215.74 C1086.96,217.03 1087.18,217.76 1086.76,222.11 C1086.23,227.68 1083.82,231.00 1080.31,231.00 C1079.01,231.00 1077.69,231.63 1077.40,232.41 C1077.10,233.19 1075.80,234.08 1074.52,234.41 ZM 547.21 212.75 C548.12,211.16 548.50,205.55 548.50,193.67 C548.50,178.46 548.32,176.71 546.65,175.49 C545.88,174.92 545.18,174.60 544.54,174.51 C544.87,174.48 545.20,174.52 545.53,174.65 C547.81,175.53 547.26,173.21 544.88,171.94 C541.46,170.11 539.84,172.70 539.43,180.64 C539.10,186.94 539.31,187.54 540.19,182.45 C539.75,185.84 539.56,190.34 539.58,196.00 C539.62,203.74 540.14,210.67 540.80,212.25 C542.21,215.63 545.43,215.88 547.21,212.75 ZM 1276.28 210.98 C1280.67,212.75 1288.69,211.40 1295.75,207.72 C1301.77,204.58 1301.19,203.27 1293.75,203.19 C1290.31,203.16 1284.46,202.83 1280.75,202.48 C1275.11,201.94 1273.90,202.09 1273.39,203.42 C1272.39,206.04 1273.91,210.03 1276.28,210.98 ZM 1265.00 241.55 C1265.00,242.15 1261.88,241.98 1260.00,241.28 C1253.42,238.84 1244.09,233.44 1242.17,230.99 C1238.74,226.58 1241.34,227.18 1250.06,232.80 C1254.15,235.44 1259.19,238.39 1261.25,239.35 C1263.31,240.31 1265.00,241.30 1265.00,241.55 ZM 1347.92 172.00 C1349.14,175.34 1349.96,178.84 1349.74,179.79 C1349.51,180.81 1348.79,179.69 1347.96,177.00 C1347.19,174.52 1345.80,170.93 1344.87,169.00 C1343.93,167.07 1343.33,165.34 1343.52,165.15 C1344.45,164.21 1345.91,166.49 1347.92,172.00 ZM 1164.69 208.35 C1165.83,209.50 1167.48,208.46 1167.76,206.42 C1168.09,203.91 1166.53,201.56 1165.11,202.43 C1163.89,203.19 1163.60,207.26 1164.69,208.35 ZM 451.53 148.04 C452.63,149.83 454.48,148.50 454.82,145.67 C455.04,143.82 454.67,143.00 453.63,143.00 C451.95,143.00 450.52,146.42 451.53,148.04 ZM 903.56 268.09 C903.86,268.59 904.80,269.00 905.63,269.00 C907.39,269.00 907.16,264.87 905.37,264.29 C904.08,263.86 902.71,266.73 903.56,268.09 ZM 813.54 274.07 C813.86,274.58 814.51,275.00 815.00,275.00 C816.40,275.00 817.13,273.20 816.02,272.51 C814.68,271.69 812.80,272.87 813.54,274.07 ZM 904.64 117.31 C905.44,118.11 907.00,117.20 907.00,115.94 C907.00,115.42 906.33,115.00 905.50,115.00 C903.95,115.00 903.51,116.18 904.64,117.31 ZM 635.00 145.50 C635.00,146.32 635.45,147.00 636.00,147.00 C636.55,147.00 637.00,146.32 637.00,145.50 C637.00,144.68 636.55,144.00 636.00,144.00 C635.45,144.00 635.00,144.68 635.00,145.50 ZM 727.00 116.50 C727.00,117.42 727.48,118.01 728.08,117.81 C728.67,117.61 729.15,117.02 729.15,116.50 C729.15,115.98 728.67,115.39 728.08,115.19 C727.48,114.99 727.00,115.58 727.00,116.50 ZM 635.00 238.06 C635.00,238.58 635.45,239.00 636.00,239.00 C636.55,239.00 637.00,238.30 637.00,237.44 C637.00,236.58 636.55,236.16 636.00,236.50 C635.45,236.84 635.00,237.54 635.00,238.06 ZM 265.00 115.00 C265.00,115.55 265.45,116.00 266.00,116.00 C266.55,116.00 267.00,115.55 267.00,115.00 C267.00,114.45 266.55,114.00 266.00,114.00 C265.45,114.00 265.00,114.45 265.00,115.00 ZM 262.99 215.92 C262.93,215.74 262.86,215.60 262.78,215.48 C262.89,215.59 262.96,215.74 262.99,215.92 Z" fill="rgba(55,31,8,1)"/>
<path d="M 207.56 323.86 C200.27,322.92 188.13,317.31 183.00,312.50 C179.61,309.33 165.57,299.34 161.66,297.33 C159.92,296.44 155.22,292.52 151.21,288.64 L 143.91 281.58 L 129.57 280.87 C112.05,280.01 104.34,278.01 90.00,270.62 C68.82,259.69 61.74,255.02 55.76,248.03 C49.73,240.99 33.75,209.76 31.70,201.00 C31.37,199.62 30.46,196.25 29.68,193.50 C27.87,187.18 26.89,154.07 28.12,141.10 C29.48,126.96 35.56,105.00 38.13,105.00 C38.67,105.00 38.83,104.54 38.49,103.98 C37.63,102.59 50.39,77.60 54.88,71.90 C59.38,66.18 64.55,62.17 75.76,55.71 C86.43,49.57 98.17,44.09 107.50,40.90 C114.03,38.66 115.79,38.51 133.50,38.69 C154.30,38.91 171.20,40.33 180.50,42.64 C185.48,43.88 197.65,50.01 201.50,53.22 C202.05,53.68 205.68,56.41 209.58,59.28 C220.12,67.06 230.28,76.80 234.32,83.00 C238.19,88.94 247.78,111.08 250.36,120.00 C252.62,127.84 254.09,159.49 252.89,174.42 C251.47,192.10 248.80,203.07 242.78,216.00 C241.63,218.48 239.96,222.30 239.08,224.50 C236.40,231.22 229.98,241.87 227.38,243.92 C224.25,246.37 213.00,259.77 213.00,261.03 C213.00,261.55 216.94,263.81 221.75,266.05 C226.56,268.30 232.07,270.89 233.99,271.81 C239.50,274.48 240.51,277.65 240.44,292.00 C240.38,303.49 240.16,304.90 237.75,309.50 C234.60,315.50 231.85,318.60 226.45,322.26 C222.04,325.24 219.80,325.43 207.56,323.86 ZM 1358.65 324.87 C1350.70,323.85 1338.10,319.72 1332.88,316.43 C1329.21,314.11 1319.38,305.15 1304.12,290.23 C1299.46,285.68 1294.72,281.77 1293.58,281.54 C1292.44,281.31 1285.65,280.88 1278.50,280.59 C1262.66,279.95 1258.88,278.98 1241.55,271.18 C1232.82,267.25 1230.94,266.15 1220.75,259.03 C1206.21,248.86 1197.98,239.71 1191.49,226.52 C1188.51,220.45 1185.94,214.37 1185.78,212.99 C1185.63,211.62 1185.13,210.23 1184.68,209.90 C1183.22,208.83 1179.14,193.25 1176.94,180.37 C1175.18,170.06 1174.87,164.95 1175.19,151.19 C1175.54,136.36 1175.89,133.49 1178.38,125.50 C1188.56,92.83 1205.48,66.28 1222.00,57.04 C1237.06,48.63 1246.08,44.99 1261.90,40.93 C1272.05,38.32 1274.95,38.00 1288.40,38.01 C1301.86,38.01 1304.80,38.34 1315.50,41.03 C1332.99,45.43 1351.43,52.84 1358.93,58.50 C1364.30,62.56 1379.80,80.03 1385.66,88.63 C1394.19,101.15 1395.38,104.92 1400.07,134.00 C1404.05,158.74 1404.14,159.93 1402.93,172.50 C1401.79,184.38 1399.57,192.50 1391.46,214.50 C1390.04,218.35 1388.64,222.40 1388.35,223.50 C1386.99,228.64 1379.14,241.31 1375.34,244.50 C1372.03,247.28 1367.00,254.45 1367.00,256.40 C1367.00,258.97 1371.84,263.69 1377.30,266.45 C1382.55,269.10 1387.75,275.15 1388.58,279.55 C1388.96,281.57 1389.05,288.46 1388.78,294.86 C1388.41,303.98 1387.85,307.38 1386.24,310.54 C1382.73,317.40 1371.87,326.19 1367.30,325.87 C1366.31,325.80 1362.42,325.35 1358.65,324.87 ZM 205.50 321.07 C211.59,323.24 218.93,323.47 223.34,321.63 C231.59,318.18 239.10,305.00 239.81,292.72 C240.62,278.68 237.91,275.66 217.08,267.40 C211.30,265.11 206.44,262.81 206.26,262.29 C206.09,261.76 209.91,257.71 214.75,253.28 C229.52,239.79 239.21,224.54 245.77,204.50 C250.87,188.89 251.50,183.63 251.45,157.00 C251.41,133.95 251.25,131.88 248.77,121.94 C243.94,102.62 238.27,90.51 228.06,77.76 C213.88,60.03 194.86,49.20 166.00,42.40 C156.62,40.19 127.34,39.91 116.00,41.92 C94.82,45.68 74.84,56.07 61.20,70.42 C52.74,79.34 49.02,84.68 43.37,96.04 C33.61,115.69 30.00,133.14 30.00,160.63 C30.01,179.29 31.57,191.57 35.64,205.00 C49.54,250.89 87.72,278.00 138.42,278.00 L 147.70 278.00 L 153.05 284.25 C161.05,293.59 166.41,298.30 177.88,306.07 C189.00,313.60 197.48,318.21 205.50,321.07 ZM 1358.77 322.92 C1364.23,324.21 1365.10,324.14 1369.50,322.10 C1385.02,314.88 1393.61,286.30 1383.21,276.44 C1379.79,273.19 1375.00,270.70 1364.11,266.49 C1358.76,264.43 1355.37,262.55 1355.17,261.53 C1354.96,260.50 1358.12,256.81 1363.53,251.74 C1374.74,241.26 1381.01,232.93 1387.04,220.50 C1395.88,202.29 1400.00,183.09 1400.00,160.09 C1400.00,124.34 1392.09,97.99 1374.98,76.75 C1363.55,62.55 1350.67,53.75 1331.59,47.06 C1318.55,42.50 1306.94,40.78 1289.00,40.75 C1268.44,40.72 1252.34,43.91 1237.64,50.94 C1200.14,68.85 1178.00,108.90 1178.00,158.81 C1178.00,195.73 1189.22,227.13 1209.70,247.50 C1229.60,267.31 1257.51,277.95 1289.61,277.99 L 1296.71 278.00 L 1302.73 285.32 C1315.03,300.31 1343.29,319.27 1358.77,322.92 ZM 763.50 281.46 C761.85,280.63 755.97,275.58 750.43,270.23 C742.97,263.01 739.17,258.40 735.72,252.36 C732.90,247.43 729.20,242.62 726.32,240.16 C723.70,237.92 720.21,233.51 718.52,230.31 C716.82,227.09 714.66,224.37 713.65,224.17 C711.99,223.85 711.90,224.32 712.67,229.66 C713.13,232.87 713.50,242.73 713.50,251.57 C713.50,267.43 713.46,267.70 710.75,271.80 C705.58,279.61 700.90,281.19 683.50,281.02 C668.93,280.88 665.08,279.84 659.86,274.63 C652.20,266.96 652.00,266.08 651.45,237.73 C651.18,223.85 650.95,210.25 650.95,207.50 C650.94,204.75 650.90,195.30 650.86,186.50 C650.82,177.70 650.81,167.35 650.85,163.50 C650.88,159.65 651.07,133.77 651.27,106.00 C651.61,56.54 651.67,55.41 653.78,51.34 C656.32,46.47 659.30,43.93 666.36,40.65 C674.05,37.07 681.16,36.72 690.79,39.44 C702.27,42.68 707.71,46.13 710.35,51.85 C712.44,56.39 712.49,57.61 712.56,104.00 C712.59,130.12 712.71,152.29 712.81,153.25 C712.93,154.36 713.85,155.00 715.34,155.00 C717.83,155.00 723.24,149.30 728.16,141.50 C729.63,139.18 734.05,134.40 737.98,130.89 C741.91,127.38 747.80,121.05 751.06,116.83 C755.76,110.77 757.94,108.80 761.52,107.44 C769.35,104.45 784.53,107.19 791.72,112.89 C796.57,116.75 800.18,125.83 800.76,135.62 C801.40,146.51 800.27,149.44 792.95,155.88 C789.62,158.81 784.40,164.78 781.34,169.14 C778.28,173.50 773.13,179.41 769.89,182.26 C761.42,189.71 762.06,193.17 773.81,203.58 C776.72,206.17 780.17,210.36 781.46,212.89 C784.27,218.42 792.81,228.36 797.95,232.08 C803.39,236.02 805.14,240.52 805.26,250.82 C805.34,257.80 804.95,260.28 803.27,263.50 C801.54,266.82 791.68,276.71 785.14,281.69 C782.75,283.51 767.28,283.35 763.50,281.46 ZM 947.46 283.01 C940.88,282.04 937.82,280.38 929.98,273.50 C916.04,261.27 911.31,255.44 904.61,242.23 C903.29,239.63 901.27,236.64 900.11,235.60 C898.95,234.55 898.00,233.19 898.00,232.58 C898.00,230.91 893.12,226.00 891.46,226.00 C889.67,226.00 889.63,226.39 889.56,248.00 L 889.50 265.50 L 886.32 270.32 C878.03,282.87 861.89,286.17 844.39,278.89 C835.69,275.27 829.76,270.36 827.63,265.02 C826.28,261.66 826.17,259.47 826.95,251.75 C827.46,246.66 827.97,212.80 828.07,176.50 C828.40,60.62 828.27,56.46 829.94,53.23 C830.14,52.84 830.37,52.46 830.62,51.91 C833.18,46.39 836.95,42.72 842.95,39.89 C846.56,38.20 849.45,37.78 857.96,37.72 C870.85,37.63 876.89,39.80 882.99,46.72 C889.56,54.19 890.02,58.33 889.68,107.00 C889.30,161.93 889.71,163.16 902.42,145.02 C905.33,140.87 909.75,135.80 912.25,133.76 C914.75,131.71 918.84,126.93 921.34,123.13 C925.17,117.33 927.12,115.50 933.67,111.56 C943.98,105.36 951.04,104.45 959.12,108.28 C965.68,111.39 973.57,118.75 975.73,123.78 C976.73,126.13 977.34,130.47 977.36,135.53 C977.40,142.91 977.15,143.92 974.30,148.03 C972.60,150.49 968.78,155.20 965.81,158.50 C962.85,161.80 958.78,166.75 956.78,169.50 C954.78,172.25 950.59,176.98 947.48,180.00 C944.37,183.02 941.44,186.47 940.97,187.65 C939.23,192.06 942.07,196.94 953.21,208.67 C965.04,221.14 977.07,236.52 979.46,242.26 C981.29,246.63 981.46,254.38 979.83,259.05 C978.72,262.24 973.80,270.23 971.47,272.64 C970.86,273.27 969.20,275.16 967.79,276.84 C962.23,283.44 958.38,284.61 947.46,283.01 ZM 545.66 282.33 C545.57,282.24 541.00,281.92 535.50,281.63 C517.42,280.66 498.12,273.55 487.71,264.02 C478.50,255.59 466.66,237.04 462.94,225.19 C460.16,216.34 458.28,184.35 460.05,176.00 C465.25,151.52 479.00,130.56 498.51,117.42 C504.30,113.51 519.79,108.62 531.32,107.06 C548.73,104.70 561.63,106.07 579.38,112.15 C593.19,116.89 594.96,118.06 605.85,129.69 C615.73,140.22 616.02,140.67 619.36,150.48 C628.29,176.69 628.32,176.88 627.72,195.58 C627.36,206.98 626.66,214.10 625.59,217.41 C624.72,220.11 624.00,223.70 624.00,225.39 C624.00,227.08 622.79,232.02 621.31,236.37 C618.98,243.23 617.73,245.20 611.75,251.39 C607.96,255.30 602.20,261.28 598.95,264.67 C587.91,276.17 572.63,282.22 554.17,282.41 C549.58,282.46 545.76,282.42 545.66,282.33 ZM 945.34 279.92 C953.70,281.49 963.27,277.82 971.04,270.06 C979.87,261.23 982.41,250.97 977.87,242.50 C976.07,239.13 953.59,211.83 939.29,195.64 C936.93,192.97 935.00,190.11 935.00,189.28 C935.00,188.46 943.45,179.17 953.77,168.64 C964.10,158.11 973.44,147.70 974.52,145.50 C977.02,140.43 977.05,131.87 974.59,126.77 C968.03,113.16 950.68,104.55 940.39,109.80 C934.60,112.75 921.29,126.91 894.33,158.75 C891.88,161.64 889.48,164.00 888.98,164.00 C888.46,164.00 887.96,141.10 887.79,109.75 L 887.50 55.50 L 885.00 51.05 C880.95,43.85 875.38,41.59 860.62,41.14 C843.15,40.61 836.64,43.12 832.68,51.91 C830.64,56.44 830.60,57.87 830.31,155.00 C830.10,223.83 830.34,255.58 831.12,260.39 C832.10,266.46 832.72,267.78 836.40,271.45 C841.72,276.77 847.53,278.50 860.00,278.49 C873.68,278.48 881.80,275.08 885.60,267.80 C886.69,265.69 887.00,259.69 887.00,240.55 C887.00,227.05 887.34,216.01 887.75,216.02 C889.48,216.05 891.47,218.55 906.92,240.00 C930.56,272.83 935.62,278.09 945.34,279.92 ZM 769.34 279.87 C781.07,281.94 796.53,272.93 802.37,260.64 C804.40,256.36 804.48,248.07 802.53,243.41 C801.01,239.77 799.45,237.83 777.50,212.10 C762.82,194.89 759.00,190.09 759.00,188.83 C759.00,188.35 766.96,179.85 776.70,169.94 C798.98,147.26 799.34,146.76 799.84,137.86 C800.33,129.22 798.40,123.69 792.97,118.09 C785.02,109.90 770.54,105.60 763.36,109.31 C759.90,111.10 748.14,123.24 731.99,141.70 C715.45,160.60 713.01,163.13 711.96,162.47 C711.37,162.11 710.99,141.71 710.98,109.19 C710.96,59.59 710.84,56.25 709.06,52.32 C705.46,44.40 697.31,41.07 681.43,41.02 C667.09,40.99 660.32,43.89 655.87,52.00 C654.74,54.07 654.49,70.99 654.47,150.00 C654.45,202.52 654.72,250.09 655.06,255.69 C655.61,264.82 655.97,266.27 658.48,269.57 C660.15,271.75 663.56,274.30 666.89,275.86 C671.77,278.13 673.80,278.47 682.50,278.47 C694.56,278.46 699.86,277.03 705.00,272.38 C710.55,267.37 711.41,262.29 710.73,238.50 C710.43,228.05 710.49,218.43 710.86,217.12 L 711.53 214.73 L 713.75 217.12 C714.97,218.43 719.69,224.62 724.23,230.88 C728.78,237.15 735.91,246.94 740.07,252.65 C754.65,272.64 760.81,278.36 769.34,279.87 ZM 524.52 278.34 C534.77,280.54 555.53,280.41 565.50,278.09 C582.80,274.06 590.34,269.89 602.53,257.60 C613.26,246.78 618.75,237.16 622.70,222.22 C624.97,213.62 625.28,210.42 625.39,194.50 C625.48,180.42 625.10,174.65 623.66,168.00 C616.80,136.40 597.82,117.18 566.64,110.26 C556.37,107.99 533.84,108.06 523.61,110.40 C493.46,117.29 473.52,137.06 465.74,167.79 C462.74,179.61 462.56,207.47 465.40,219.00 C473.50,251.87 493.18,271.63 524.52,278.34 ZM 323.30 282.95 C318.12,281.93 316.62,281.16 306.20,274.22 C301.63,271.17 296.07,266.62 293.84,264.09 C288.99,258.58 280.33,240.96 278.92,233.71 C278.36,230.84 277.92,219.73 277.95,209.00 C278.06,165.88 278.05,143.99 277.92,133.98 C277.81,124.92 278.10,122.87 279.99,119.24 C284.61,110.37 292.70,106.83 308.29,106.84 C316.32,106.84 318.33,107.22 324.00,109.78 C331.64,113.22 338.38,119.96 339.89,125.66 C341.42,131.43 342.70,161.00 341.97,173.50 C341.61,179.55 340.74,189.50 340.02,195.60 C337.82,214.56 340.18,222.20 349.68,226.86 C353.43,228.69 354.48,228.79 359.86,227.79 C366.31,226.59 366.06,226.85 370.45,216.59 C372.93,210.79 374.24,190.81 374.56,154.00 C374.88,118.39 375.17,116.46 380.79,112.31 C385.80,108.61 395.28,106.72 405.00,107.46 C421.39,108.72 430.73,112.86 434.02,120.32 C435.03,122.62 436.16,128.15 436.54,132.62 C437.06,138.83 437.98,205.74 437.98,237.50 C437.98,239.70 437.59,246.93 437.12,253.56 C436.20,266.63 434.96,270.43 429.67,276.47 C424.73,282.11 419.53,282.51 398.50,278.90 C394.75,278.26 390.62,276.65 387.50,274.62 C384.75,272.83 381.70,271.07 380.72,270.70 C379.55,270.27 374.89,272.13 367.22,276.09 C357.89,280.90 354.07,282.32 348.50,283.04 C340.05,284.12 329.03,284.08 323.30,282.95 ZM 1035.10 280.79 C1021.18,279.26 1009.40,269.86 1004.06,256.01 C999.96,245.37 999.05,240.89 999.02,231.15 C999.00,222.37 1001.22,212.28 1003.58,210.40 C1004.35,209.80 1004.69,209.02 1004.34,208.67 C1003.50,207.84 1008.38,200.55 1013.23,195.37 C1017.58,190.73 1031.55,183.38 1042.19,180.14 C1045.87,179.02 1050.82,177.11 1053.19,175.89 C1056.64,174.13 1060.36,173.49 1071.77,172.69 C1085.85,171.70 1086.05,171.66 1086.67,169.16 C1087.59,165.50 1085.13,161.92 1080.50,160.21 C1074.84,158.13 1054.89,158.31 1044.00,160.55 C1031.03,163.21 1021.18,163.55 1017.29,161.46 C1009.33,157.18 1006.25,146.39 1009.43,133.94 C1011.50,125.86 1014.72,121.17 1020.95,117.13 C1030.98,110.63 1038.78,108.99 1069.00,107.02 C1078.62,106.39 1087.09,105.68 1087.81,105.45 C1088.53,105.21 1093.48,105.96 1098.81,107.12 C1106.99,108.89 1110.01,110.14 1118.20,115.17 C1128.25,121.35 1140.68,131.99 1142.67,136.13 C1149.09,149.41 1151.09,170.19 1151.39,226.47 L 1151.60 268.45 L 1147.55 272.47 C1141.65,278.34 1135.34,280.13 1119.93,280.34 L 1107.40 280.50 L 1101.79 276.65 C1097.09,273.42 1095.68,272.91 1093.03,273.49 C1091.29,273.88 1089.62,274.82 1089.33,275.58 C1089.04,276.35 1085.27,278.09 1080.95,279.45 C1073.81,281.71 1071.70,281.91 1057.31,281.72 C1048.61,281.60 1038.62,281.18 1035.10,280.79 ZM 1047.00 279.87 C1063.12,281.80 1080.50,277.35 1090.84,268.65 C1094.95,265.20 1098.00,263.99 1098.00,265.82 C1098.00,266.27 1099.61,268.52 1101.57,270.81 C1111.53,282.44 1140.75,281.25 1147.02,268.96 C1148.90,265.27 1149.00,262.95 1148.99,222.29 C1148.98,178.38 1148.12,161.18 1145.41,150.56 C1140.55,131.56 1126.50,118.16 1104.98,111.99 C1084.51,106.12 1040.54,109.61 1023.01,118.50 C1014.16,122.98 1010.26,131.25 1011.25,143.48 C1011.84,150.93 1015.27,156.62 1021.14,159.94 C1026.03,162.71 1029.94,162.54 1040.01,159.11 C1062.32,151.53 1083.91,152.64 1089.15,161.65 C1090.06,163.22 1091.13,166.64 1091.52,169.26 C1092.60,176.47 1091.75,177.00 1079.13,177.01 C1055.62,177.02 1032.66,183.40 1018.24,193.92 C1012.13,198.38 1005.38,208.03 1003.01,215.70 C998.84,229.20 1001.12,248.50 1008.07,258.60 C1016.42,270.74 1029.25,277.75 1047.00,279.87 ZM 328.83 279.98 C344.41,282.61 362.38,277.99 375.69,267.94 C378.56,265.77 381.14,264.00 381.41,264.00 C381.68,264.00 383.27,265.99 384.95,268.42 C387.07,271.52 389.73,273.70 393.75,275.67 C398.90,278.20 400.55,278.50 409.50,278.50 C418.61,278.50 420.03,278.23 425.49,275.50 C427.92,274.28 429.76,273.66 431.16,272.50 C435.98,268.51 435.50,258.14 435.50,195.00 C435.49,131.33 435.33,124.21 433.84,121.50 C429.46,113.55 423.33,110.84 408.27,110.22 C395.56,109.69 389.20,110.86 384.25,114.63 C378.23,119.21 378.01,120.38 377.90,147.70 C377.85,161.34 377.51,182.92 377.15,195.66 L 376.50 218.82 L 373.40 222.66 C365.58,232.36 352.84,233.93 344.66,226.19 C338.34,220.20 338.55,221.96 338.00,170.34 L 337.50 123.18 L 334.45 119.34 C332.77,117.23 329.17,114.38 326.45,113.00 C321.90,110.70 320.41,110.50 308.00,110.50 C295.03,110.50 294.31,110.61 289.76,113.29 C287.88,114.39 286.44,115.10 285.32,116.16 C281.25,120.02 281.50,128.44 281.50,176.50 C281.50,224.68 281.69,231.31 283.27,238.04 C288.86,261.81 304.05,275.80 328.83,279.98 ZM 1341.52 259.84 C1338.58,262.43 1337.08,263.00 1333.22,263.00 C1327.84,263.00 1319.87,259.44 1310.91,253.03 L 1305.31 249.03 L 1296.74 250.08 C1260.96,254.46 1228.15,233.43 1218.78,200.12 C1215.70,189.19 1215.93,173.53 1219.33,162.40 C1222.60,151.69 1226.20,144.04 1229.32,141.14 C1231.60,139.02 1232.61,138.82 1239.05,139.14 L 1246.23 139.50 L 1247.98 133.00 C1252.89,114.75 1259.34,105.30 1271.00,99.32 C1276.17,96.67 1277.25,96.50 1289.00,96.50 C1300.50,96.50 1301.96,96.72 1307.27,99.20 C1320.61,105.46 1328.53,118.77 1331.54,140.00 C1332.08,143.83 1332.90,145.09 1337.05,148.50 C1343.35,153.67 1350.23,163.78 1353.04,172.00 C1354.76,177.03 1355.26,180.77 1355.26,188.50 C1355.25,200.82 1353.37,208.72 1347.70,220.26 L 1343.39 229.01 L 1346.33 233.54 C1351.77,241.89 1349.81,252.57 1341.52,259.84 ZM 158.37 217.94 C151.14,220.78 135.04,221.71 127.93,219.69 C121.38,217.84 114.73,213.67 110.50,208.76 C104.59,201.90 103.04,198.03 99.37,181.00 C96.89,169.50 97.12,144.21 99.81,132.06 C103.59,115.06 111.31,103.46 122.50,97.96 C127.01,95.74 128.72,95.50 140.00,95.52 C150.78,95.54 153.31,95.87 158.42,97.90 C166.52,101.14 171.80,106.32 176.34,115.50 C182.44,127.85 184.42,138.42 184.36,158.50 C184.32,172.46 183.92,177.10 182.13,184.42 C177.77,202.28 169.88,213.41 158.37,217.94 ZM 159.00 215.30 C163.83,213.11 167.78,209.32 170.26,204.50 C178.81,187.92 181.99,175.87 182.11,159.50 C182.22,145.91 181.80,142.75 178.40,131.50 C177.07,127.10 175.30,121.01 174.48,117.97 C172.60,111.02 168.23,105.66 161.78,102.39 C155.22,99.06 133.34,97.09 126.25,99.18 C121.69,100.53 115.42,105.80 110.99,112.00 C108.15,115.98 104.08,123.95 104.03,125.62 C104.01,126.24 103.11,128.76 102.02,131.22 C97.46,141.53 97.37,171.14 101.86,184.04 C107.39,199.94 115.46,211.99 123.23,215.95 C127.13,217.94 128.66,218.10 141.00,217.74 C151.88,217.43 155.37,216.95 159.00,215.30 ZM 1299.59 218.04 C1302.84,216.41 1307.19,213.43 1309.26,211.42 C1313.71,207.08 1319.10,196.30 1319.76,190.41 C1320.32,185.45 1317.23,175.27 1313.49,169.77 C1312.12,167.76 1310.98,165.52 1310.96,164.80 C1310.94,164.09 1309.57,161.25 1307.93,158.50 C1302.90,150.06 1302.50,149.01 1303.66,147.17 C1305.10,144.87 1310.48,144.60 1318.43,146.45 C1324.41,147.83 1327.01,148.49 1328.14,147.48 C1329.04,146.67 1329.00,144.79 1329.00,141.36 C1329.00,124.65 1319.30,109.27 1303.79,101.38 C1299.30,99.10 1296.89,98.63 1287.90,98.25 C1275.14,97.71 1274.34,98.04 1264.32,107.92 C1258.96,113.22 1256.77,116.20 1255.64,119.75 C1253.45,126.62 1248.65,139.27 1247.61,140.88 C1246.93,141.94 1245.08,142.13 1239.76,141.68 C1233.28,141.14 1232.66,141.27 1230.52,143.57 C1228.10,146.18 1225.67,153.68 1226.99,154.49 C1227.41,154.76 1228.80,153.46 1230.06,151.61 C1234.48,145.17 1236.49,145.16 1249.05,151.53 C1253.15,153.60 1256.65,154.45 1263.48,155.01 C1268.44,155.41 1273.32,156.09 1274.32,156.51 C1275.33,156.93 1279.23,161.26 1283.00,166.14 C1290.46,175.79 1292.71,182.10 1291.16,189.00 C1290.47,192.04 1290.00,192.47 1287.61,192.30 C1285.40,192.14 1284.66,192.67 1283.86,194.96 C1282.91,197.69 1280.58,198.97 1275.59,199.49 C1274.54,199.60 1271.44,198.84 1268.70,197.80 C1265.60,196.62 1262.64,196.14 1260.86,196.53 C1258.42,197.07 1258.00,197.64 1258.00,200.43 C1258.00,207.39 1266.80,215.23 1278.99,219.13 C1287.29,221.79 1292.68,221.50 1299.59,218.04 ZM 1328.91 253.04 C1330.34,253.48 1331.96,253.87 1332.53,253.91 C1334.76,254.10 1338.00,250.74 1339.08,247.11 C1340.50,242.38 1339.30,239.71 1334.72,237.39 C1330.36,235.18 1328.00,233.00 1328.00,231.17 C1328.00,230.34 1330.17,227.15 1332.83,224.08 C1339.22,216.70 1342.56,210.79 1344.45,203.54 C1348.62,187.50 1343.77,168.56 1332.71,157.72 C1325.11,150.26 1308.00,145.29 1308.00,150.53 C1308.00,151.30 1309.99,155.21 1312.42,159.21 C1320.15,171.97 1321.40,176.01 1321.45,188.50 C1321.51,201.37 1320.01,205.50 1312.43,213.41 C1306.05,220.08 1298.63,223.27 1288.26,223.82 C1277.60,224.38 1270.11,221.78 1262.62,214.93 C1256.82,209.63 1253.63,204.32 1249.16,192.50 C1245.33,182.37 1244.32,178.27 1243.48,169.25 C1242.83,162.36 1242.90,162.00 1244.88,162.00 C1247.81,162.00 1249.84,165.63 1251.36,173.63 C1252.96,182.02 1254.05,184.18 1258.37,187.47 C1263.45,191.34 1278.18,195.14 1279.54,192.93 C1280.29,191.73 1279.33,190.35 1271.59,181.52 C1268.05,177.47 1266.99,175.61 1267.78,174.82 C1269.12,173.48 1276.17,178.48 1283.45,185.91 C1289.03,191.62 1290.24,191.23 1289.33,184.02 C1288.67,178.74 1285.35,172.50 1280.76,167.92 C1277.00,164.15 1267.44,159.42 1260.98,158.12 C1258.52,157.63 1252.08,155.51 1246.68,153.41 C1239.39,150.57 1236.45,149.85 1235.26,150.61 C1232.14,152.58 1227.84,167.67 1227.26,178.70 C1226.62,190.76 1227.98,199.01 1232.03,207.50 C1237.27,218.52 1250.43,230.72 1262.50,235.74 C1273.88,240.48 1288.49,242.03 1302.05,239.92 L 1308.98 238.85 L 1314.74 243.74 C1321.40,249.40 1325.28,251.94 1328.91,253.04 ZM 553.55 230.51 C547.95,233.33 540.45,233.77 535.42,231.58 C531.06,229.68 526.27,223.45 524.51,217.38 C522.68,211.08 522.43,184.79 524.12,176.80 C525.42,170.68 528.95,163.22 531.64,160.90 C536.66,156.57 541.78,154.69 546.88,155.30 C553.87,156.13 557.64,158.37 561.01,163.68 C565.15,170.21 566.40,177.36 566.45,195.00 C566.49,207.76 566.16,211.47 564.59,216.00 C561.74,224.20 559.05,227.75 553.55,230.51 ZM 553.25 225.06 C555.80,223.44 558.52,220.85 559.28,219.31 C561.29,215.26 563.82,206.18 564.31,201.26 C565.14,192.95 560.30,168.20 557.15,164.64 C556.24,163.62 553.83,161.94 551.79,160.90 C544.95,157.40 534.41,161.35 528.90,169.47 C524.52,175.92 522.33,197.10 525.13,205.93 C530.99,224.42 533.91,227.91 543.55,227.97 C547.46,227.99 549.66,227.33 553.25,225.06 ZM 1080.50 238.12 C1074.66,240.80 1065.10,240.65 1061.51,237.83 C1058.35,235.35 1055.89,230.17 1056.46,227.21 C1057.03,224.24 1059.53,219.74 1061.70,217.77 C1065.77,214.09 1081.26,210.85 1087.42,212.39 C1089.95,213.03 1090.00,213.21 1090.00,221.88 C1090.00,230.19 1089.83,230.90 1087.25,233.51 C1085.74,235.04 1082.70,237.11 1080.50,238.12 ZM 1074.52 234.41 C1075.80,234.08 1077.10,233.19 1077.40,232.41 C1077.69,231.63 1079.01,231.00 1080.31,231.00 C1083.82,231.00 1086.23,227.68 1086.76,222.11 C1087.18,217.76 1086.96,217.03 1084.87,215.74 C1083.32,214.78 1080.97,214.44 1078.09,214.76 C1074.37,215.16 1072.75,216.14 1067.76,221.00 C1062.84,225.78 1061.90,227.23 1062.17,229.63 C1062.41,231.75 1063.41,232.96 1066.00,234.25 C1067.93,235.22 1070.10,235.78 1070.84,235.50 C1071.58,235.22 1073.24,234.73 1074.52,234.41 ZM 355.75 214.23 C353.65,213.78 353.30,212.26 352.52,200.23 C352.19,195.13 351.48,188.55 350.93,185.59 C349.77,179.29 350.45,158.57 351.96,154.61 C352.53,153.10 353.09,150.21 353.19,148.18 C353.30,146.16 353.63,159.44 353.94,177.70 C354.52,212.08 354.90,214.99 358.46,212.04 C359.46,211.20 360.00,209.05 360.00,205.88 C360.00,203.19 360.40,201.00 360.89,201.00 C361.97,201.00 363.16,205.32 362.58,207.17 C362.35,207.90 361.91,209.68 361.59,211.13 C361.01,213.80 358.92,214.91 355.75,214.23 ZM 1276.28 210.98 C1273.91,210.03 1272.39,206.04 1273.39,203.42 C1273.90,202.09 1275.11,201.94 1280.75,202.48 C1284.46,202.83 1290.31,203.16 1293.75,203.19 C1301.19,203.27 1301.77,204.58 1295.75,207.72 C1288.69,211.40 1280.67,212.75 1276.28,210.98 ZM 1265.00 241.55 C1265.00,241.30 1263.31,240.31 1261.25,239.35 C1259.19,238.39 1254.15,235.44 1250.06,232.80 C1241.34,227.18 1238.74,226.58 1242.17,230.99 C1244.09,233.44 1253.42,238.84 1260.00,241.28 C1261.88,241.98 1265.00,242.15 1265.00,241.55 ZM 263.02 216.14 C263.01,215.35 262.38,215.03 261.50,215.36 C260.37,215.80 260.00,215.19 260.00,212.90 C260.00,209.13 261.60,206.00 263.54,206.00 C265.25,206.00 265.60,213.53 264.00,216.00 C263.25,217.16 263.03,217.19 263.02,216.14 ZM 1281.19 208.15 C1285.97,209.50 1292.00,208.48 1292.00,206.33 C1292.00,205.21 1290.55,204.97 1285.25,205.20 C1278.56,205.50 1276.66,206.87 1281.19,208.15 ZM 539.43 180.64 C539.84,172.70 541.46,170.11 544.88,171.94 C547.26,173.21 547.81,175.53 545.53,174.65 C543.39,173.83 541.17,176.52 540.47,180.78 C539.36,187.60 539.07,187.56 539.43,180.64 ZM 1158.67 144.33 C1157.48,143.15 1157.90,136.82 1159.11,137.57 C1159.72,137.95 1160.57,137.69 1161.00,136.99 C1161.52,136.16 1162.02,136.81 1162.48,138.91 C1163.36,142.93 1160.85,146.51 1158.67,144.33 ZM 1347.92 172.00 C1345.91,166.49 1344.45,164.21 1343.52,165.15 C1343.33,165.34 1343.93,167.07 1344.87,169.00 C1345.80,170.93 1347.19,174.52 1347.96,177.00 C1348.79,179.69 1349.51,180.81 1349.74,179.79 C1349.96,178.84 1349.14,175.34 1347.92,172.00 ZM 726.02 267.83 C726.01,266.37 726.56,264.96 727.25,264.72 C729.27,263.99 732.00,265.91 732.00,268.04 C732.00,269.77 731.75,269.86 729.97,268.76 C728.29,267.72 727.77,267.76 726.98,269.00 C726.24,270.17 726.03,269.91 726.02,267.83 ZM 809.00 158.32 C809.00,157.67 809.76,156.39 810.68,155.46 C812.26,153.88 812.44,153.89 813.61,155.49 C814.30,156.43 814.64,157.78 814.37,158.49 C813.75,160.09 809.00,159.94 809.00,158.32 ZM 1164.69 208.35 C1163.60,207.26 1163.89,203.19 1165.11,202.43 C1166.53,201.56 1168.09,203.91 1167.76,206.42 C1167.48,208.46 1165.83,209.50 1164.69,208.35 ZM 451.53 148.04 C450.52,146.42 451.95,143.00 453.63,143.00 C454.67,143.00 455.04,143.82 454.82,145.67 C454.48,148.50 452.63,149.83 451.53,148.04 ZM 992.75 151.20 C990.99,150.85 990.31,147.55 991.80,146.62 C993.23,145.74 995.18,147.68 994.84,149.64 C994.62,150.84 993.85,151.42 992.75,151.20 ZM 452.57 243.43 C450.58,241.44 450.54,239.00 452.50,239.00 C453.33,239.00 454.03,239.34 454.07,239.75 C454.12,240.16 454.34,241.51 454.57,242.75 C455.06,245.41 454.68,245.54 452.57,243.43 ZM 903.56 268.09 C902.71,266.73 904.08,263.86 905.37,264.29 C907.16,264.87 907.39,269.00 905.63,269.00 C904.80,269.00 903.86,268.59 903.56,268.09 ZM 809.38 226.54 C809.03,225.65 808.97,224.70 809.23,224.43 C810.08,223.59 813.10,225.21 812.73,226.31 C812.13,228.11 810.04,228.26 809.38,226.54 ZM 813.54 274.07 C812.80,272.87 814.68,271.69 816.02,272.51 C817.13,273.20 816.40,275.00 815.00,275.00 C814.51,275.00 813.86,274.58 813.54,274.07 ZM 904.64 117.31 C903.51,116.18 903.95,115.00 905.50,115.00 C906.33,115.00 907.00,115.42 907.00,115.94 C907.00,117.20 905.44,118.11 904.64,117.31 ZM 635.00 145.50 C635.00,144.68 635.45,144.00 636.00,144.00 C636.55,144.00 637.00,144.68 637.00,145.50 C637.00,146.32 636.55,147.00 636.00,147.00 C635.45,147.00 635.00,146.32 635.00,145.50 ZM 727.00 116.50 C727.00,115.58 727.48,114.99 728.08,115.19 C728.67,115.39 729.15,115.98 729.15,116.50 C729.15,117.02 728.67,117.61 728.08,117.81 C727.48,118.01 727.00,117.42 727.00,116.50 ZM 635.00 238.06 C635.00,237.54 635.45,236.84 636.00,236.50 C636.55,236.16 637.00,236.58 637.00,237.44 C637.00,238.30 636.55,239.00 636.00,239.00 C635.45,239.00 635.00,238.58 635.00,238.06 ZM 265.00 115.00 C265.00,114.45 265.45,114.00 266.00,114.00 C266.55,114.00 267.00,114.45 267.00,115.00 C267.00,115.55 266.55,116.00 266.00,116.00 C265.45,116.00 265.00,115.55 265.00,115.00 Z" fill="rgba(75,48,19,1)"/>
<path d="M 1247.60 163.32 C1249.03,164.86 1250.17,167.75 1251.06,172.01 C1252.44,178.65 1255.99,185.11 1259.53,187.43 C1265.20,191.14 1277.00,193.35 1277.00,190.70 C1277.00,189.99 1274.53,186.50 1271.51,182.95 C1265.84,176.28 1265.00,174.32 1267.41,173.40 C1269.70,172.52 1274.91,175.81 1280.32,181.56 C1285.93,187.52 1288.37,187.58 1287.05,181.72 C1285.26,173.84 1277.85,165.57 1269.50,162.15 C1264.86,160.24 1259.02,157.97 1253.55,155.91 C1256.72,156.98 1259.53,157.83 1260.98,158.12 C1267.44,159.42 1277.00,164.15 1280.76,167.92 C1285.35,172.50 1288.67,178.74 1289.33,184.02 C1290.24,191.23 1289.03,191.62 1283.45,185.91 C1276.17,178.48 1269.12,173.48 1267.78,174.82 C1266.99,175.61 1268.05,177.47 1271.59,181.52 C1279.33,190.35 1280.29,191.73 1279.54,192.93 C1278.18,195.14 1263.45,191.34 1258.37,187.47 C1254.05,184.18 1252.96,182.02 1251.36,173.63 C1250.36,168.38 1249.15,165.01 1247.60,163.32 ZM 1281.19 208.15 C1276.66,206.87 1278.56,205.50 1285.25,205.20 C1290.55,204.97 1292.00,205.21 1292.00,206.33 C1292.00,208.48 1285.97,209.50 1281.19,208.15 ZM 1283.50 207.00 C1283.84,207.55 1284.96,208.00 1286.00,208.00 C1287.04,208.00 1288.16,207.55 1288.50,207.00 C1288.86,206.42 1287.82,206.00 1286.00,206.00 C1284.18,206.00 1283.14,206.42 1283.50,207.00 ZM 1227.20 187.83 C1227.72,195.02 1229.34,201.86 1232.03,207.50 C1229.09,201.33 1227.57,195.30 1227.20,187.83 ZM 1233.28 153.24 C1232.54,154.83 1231.69,157.15 1230.54,160.50 C1230.51,160.59 1230.47,160.69 1230.44,160.78 C1231.33,157.75 1232.31,155.10 1233.28,153.24 ZM 1243.55 152.23 C1242.86,151.98 1242.21,151.75 1241.60,151.54 C1242.20,151.74 1242.85,151.97 1243.55,152.23 Z" fill="rgba(117,88,51,1)"/>
<path d="M 1328.91 253.04 C1325.28,251.94 1321.40,249.40 1314.74,243.74 L 1308.98 238.85 L 1302.05 239.92 C1288.49,242.03 1273.88,240.48 1262.50,235.74 C1250.43,230.72 1237.27,218.52 1232.03,207.50 C1225.93,194.70 1225.33,175.68 1230.54,160.50 C1233.56,151.71 1234.55,150.00 1236.65,150.00 C1237.95,150.00 1257.64,157.28 1269.50,162.15 C1277.85,165.57 1285.26,173.84 1287.05,181.72 C1288.37,187.58 1285.93,187.52 1280.32,181.56 C1274.91,175.81 1269.70,172.52 1267.41,173.40 C1265.00,174.32 1265.84,176.28 1271.51,182.95 C1274.53,186.50 1277.00,189.99 1277.00,190.70 C1277.00,193.35 1265.20,191.14 1259.53,187.43 C1255.99,185.11 1252.44,178.65 1251.06,172.01 C1249.67,165.30 1247.63,162.00 1244.88,162.00 C1242.90,162.00 1242.83,162.36 1243.48,169.25 C1244.32,178.27 1245.33,182.37 1249.16,192.50 C1253.63,204.32 1256.82,209.63 1262.62,214.93 C1270.11,221.78 1277.60,224.38 1288.26,223.82 C1298.63,223.27 1306.05,220.08 1312.43,213.41 C1320.01,205.50 1321.51,201.37 1321.45,188.50 C1321.40,176.01 1320.15,171.97 1312.42,159.21 C1309.99,155.21 1308.00,151.30 1308.00,150.53 C1308.00,145.29 1325.11,150.26 1332.71,157.72 C1343.77,168.56 1348.62,187.50 1344.45,203.54 C1342.56,210.79 1339.22,216.70 1332.83,224.08 C1330.17,227.15 1328.00,230.34 1328.00,231.17 C1328.00,233.00 1330.36,235.18 1334.72,237.39 C1339.30,239.71 1340.50,242.38 1339.08,247.11 C1338.00,250.74 1334.76,254.10 1332.53,253.91 C1331.96,253.87 1330.34,253.48 1328.91,253.04 Z" fill="rgba(133,136,60,1)"/>
<path d="M 1358.77 322.92 C1343.29,319.27 1315.03,300.31 1302.73,285.32 L 1296.71 278.00 L 1289.61 277.99 C1257.51,277.95 1229.60,267.31 1209.70,247.50 C1189.22,227.13 1178.00,195.73 1178.00,158.81 C1178.00,108.90 1200.14,68.85 1237.64,50.94 C1252.34,43.91 1268.44,40.72 1289.00,40.75 C1306.94,40.78 1318.55,42.50 1331.59,47.06 C1350.67,53.75 1363.55,62.55 1374.98,76.75 C1392.09,97.99 1400.00,124.34 1400.00,160.09 C1400.00,183.09 1395.88,202.29 1387.04,220.50 C1381.01,232.93 1374.74,241.26 1363.53,251.74 C1358.12,256.81 1354.96,260.50 1355.17,261.53 C1355.37,262.55 1358.76,264.43 1364.11,266.49 C1375.00,270.70 1379.79,273.19 1383.21,276.44 C1393.61,286.30 1385.02,314.88 1369.50,322.10 C1365.10,324.14 1364.23,324.21 1358.77,322.92 ZM 1352.00 317.12 C1355.57,318.06 1360.05,318.86 1361.93,318.91 C1366.55,319.03 1373.37,315.59 1376.82,311.40 C1381.75,305.42 1384.95,291.24 1383.00,284.02 C1381.23,277.44 1377.67,274.54 1364.50,268.97 C1357.90,266.18 1351.77,262.95 1350.88,261.79 L 1349.25 259.68 L 1346.37 261.74 C1341.67,265.09 1336.05,266.14 1328.57,265.08 C1322.93,264.28 1320.65,263.27 1313.30,258.34 L 1304.67 252.54 L 1285.09 251.92 C1261.21,251.16 1257.31,250.13 1243.50,240.90 C1235.82,235.77 1231.48,230.60 1224.15,217.85 C1217.36,206.05 1214.96,199.01 1214.31,189.00 C1213.62,178.28 1215.05,169.01 1219.51,155.39 C1222.39,146.61 1223.74,143.97 1226.94,140.83 C1229.08,138.72 1231.44,136.97 1232.17,136.94 C1242.62,136.48 1244.57,134.99 1248.48,124.53 C1251.98,115.13 1256.09,108.99 1263.12,102.63 C1270.68,95.79 1276.05,93.99 1288.86,94.02 C1296.68,94.04 1299.59,94.50 1304.26,96.42 C1319.47,102.67 1329.16,115.99 1332.55,135.31 C1333.94,143.19 1333.95,143.21 1340.88,149.85 C1348.31,156.97 1353.03,164.40 1355.63,173.09 C1358.14,181.45 1356.99,198.55 1352.88,213.98 C1349.70,225.93 1349.68,226.23 1350.99,234.31 C1351.72,238.81 1352.36,245.09 1352.40,248.25 C1352.44,251.41 1352.72,254.00 1353.02,254.00 C1354.60,254.00 1371.03,240.48 1375.31,235.66 C1379.38,231.08 1384.00,220.76 1390.36,202.00 C1395.22,187.68 1396.11,183.84 1397.12,172.93 C1398.15,161.70 1398.04,158.27 1396.05,140.52 C1394.83,129.60 1392.97,117.25 1391.92,113.08 C1386.67,92.24 1368.14,67.35 1349.97,56.75 C1343.57,53.01 1334.52,49.36 1326.00,47.09 C1306.52,41.88 1306.23,41.85 1287.00,42.26 L 1268.50 42.67 L 1254.31 47.37 C1235.77,53.51 1227.82,57.19 1220.50,63.01 C1208.33,72.68 1201.06,81.77 1193.57,96.67 C1183.49,116.75 1179.81,130.60 1179.26,150.50 C1178.65,172.86 1180.92,188.11 1187.97,209.00 C1194.57,228.57 1204.81,243.99 1216.17,251.47 C1218.55,253.03 1221.71,255.13 1223.19,256.14 C1227.65,259.17 1236.88,263.59 1248.82,268.40 C1260.43,273.08 1267.47,274.52 1284.25,275.68 C1289.06,276.01 1293.00,276.71 1293.00,277.25 C1293.00,277.79 1294.14,277.93 1295.60,277.56 C1297.91,276.99 1299.52,278.21 1309.85,288.38 C1316.26,294.69 1323.74,301.68 1326.47,303.92 C1333.20,309.42 1344.11,315.06 1352.00,317.12 ZM 945.34 279.92 C935.62,278.09 930.56,272.83 906.92,240.00 C891.47,218.55 889.48,216.05 887.75,216.02 C887.34,216.01 887.00,227.05 887.00,240.55 C887.00,259.69 886.69,265.69 885.60,267.80 C881.80,275.08 873.68,278.48 860.00,278.49 C847.53,278.50 841.72,276.77 836.40,271.45 C832.72,267.78 832.10,266.46 831.12,260.39 C830.34,255.58 830.10,223.83 830.31,155.00 C830.60,57.87 830.64,56.44 832.68,51.91 C836.64,43.12 843.15,40.61 860.62,41.14 C875.38,41.59 880.95,43.85 885.00,51.05 L 887.50 55.50 L 887.79 109.75 C887.96,141.10 888.46,164.00 888.98,164.00 C889.48,164.00 891.88,161.64 894.33,158.75 C921.29,126.91 934.60,112.75 940.39,109.80 C950.68,104.55 968.03,113.16 974.59,126.77 C977.05,131.87 977.02,140.43 974.52,145.50 C973.44,147.70 964.10,158.11 953.77,168.64 C943.45,179.17 935.00,188.46 935.00,189.28 C935.00,190.11 936.93,192.97 939.29,195.64 C953.59,211.83 976.07,239.13 977.87,242.50 C982.41,250.97 979.87,261.23 971.04,270.06 C963.27,277.82 953.70,281.49 945.34,279.92 ZM 769.34 279.87 C760.81,278.36 754.65,272.64 740.07,252.65 C735.91,246.94 728.78,237.15 724.23,230.88 C719.69,224.62 714.97,218.43 713.75,217.12 L 711.53 214.73 L 710.86 217.12 C710.49,218.43 710.43,228.05 710.73,238.50 C711.41,262.29 710.55,267.37 705.00,272.38 C699.86,277.03 694.56,278.46 682.50,278.47 C673.80,278.47 671.77,278.13 666.89,275.86 C663.56,274.30 660.15,271.75 658.48,269.57 C655.97,266.27 655.61,264.82 655.06,255.69 C654.72,250.09 654.45,202.52 654.47,150.00 C654.49,70.99 654.74,54.07 655.87,52.00 C660.32,43.89 667.09,40.99 681.43,41.02 C697.31,41.07 705.46,44.40 709.06,52.32 C710.84,56.25 710.96,59.59 710.98,109.19 C710.99,141.71 711.37,162.11 711.96,162.47 C713.01,163.13 715.45,160.60 731.99,141.70 C748.14,123.24 759.90,111.10 763.36,109.31 C770.54,105.60 785.02,109.90 792.97,118.09 C798.40,123.69 800.33,129.22 799.84,137.86 C799.34,146.76 798.98,147.26 776.70,169.94 C766.96,179.85 759.00,188.35 759.00,188.83 C759.00,190.09 762.82,194.89 777.50,212.10 C799.45,237.83 801.01,239.77 802.53,243.41 C804.48,248.07 804.40,256.36 802.37,260.64 C796.53,272.93 781.07,281.94 769.34,279.87 ZM 524.52 278.34 C493.18,271.63 473.50,251.87 465.40,219.00 C462.56,207.47 462.74,179.61 465.74,167.79 C473.52,137.06 493.46,117.29 523.61,110.40 C533.84,108.06 556.37,107.99 566.64,110.26 C597.82,117.18 616.80,136.40 623.66,168.00 C625.10,174.65 625.48,180.42 625.39,194.50 C625.28,210.42 624.97,213.62 622.70,222.22 C618.75,237.16 613.26,246.78 602.53,257.60 C590.34,269.89 582.80,274.06 565.50,278.09 C555.53,280.41 534.77,280.54 524.52,278.34 ZM 535.00 277.33 C547.00,278.19 557.54,277.85 564.66,276.39 C568.97,275.51 573.85,274.55 575.50,274.26 C577.15,273.96 578.72,273.41 579.00,273.03 C579.28,272.65 581.95,271.03 584.94,269.42 C591.73,265.77 606.29,252.14 610.49,245.50 C623.23,225.33 627.60,188.72 620.33,163.00 C616.86,150.69 615.73,147.94 611.85,142.35 C600.67,126.21 586.59,116.95 565.67,111.98 C558.44,110.27 554.78,110.02 542.30,110.39 C525.34,110.90 516.91,112.56 506.68,117.40 C497.37,121.80 489.79,127.96 482.08,137.40 C475.20,145.82 470.01,156.12 466.74,167.80 C464.88,174.45 464.60,177.95 464.68,193.50 C464.76,211.95 465.72,218.13 470.44,230.84 C475.08,243.34 486.26,258.12 496.00,264.65 C505.29,270.88 522.36,276.43 535.00,277.33 ZM 766.53 277.27 C767.61,277.54 770.93,277.82 773.89,277.88 C783.57,278.09 792.43,271.99 798.78,260.73 C804.49,250.61 803.01,244.80 791.24,231.31 C787.53,227.07 782.47,221.02 780.00,217.89 C777.53,214.76 772.07,208.44 767.88,203.85 C758.62,193.69 756.35,189.76 758.23,187.09 C758.94,186.07 767.17,177.25 776.51,167.51 C785.86,157.76 794.51,148.15 795.74,146.14 C799.13,140.65 798.85,132.63 795.02,125.04 C790.34,115.77 783.73,111.69 771.44,110.47 C764.70,109.81 764.27,109.90 760.98,112.64 C759.09,114.21 756.20,117.07 754.55,119.00 C752.90,120.93 749.47,124.53 746.92,127.00 C740.89,132.86 729.54,146.11 727.96,149.13 C726.43,152.08 711.82,166.15 711.07,165.40 C710.77,165.10 710.67,161.96 710.85,158.43 C711.04,154.67 710.77,152.00 710.20,152.00 C709.58,152.00 709.19,134.82 709.14,104.53 C709.07,66.27 708.78,56.42 707.65,53.78 C704.30,45.89 694.01,41.62 679.67,42.16 C670.69,42.49 670.37,42.59 664.34,46.83 C660.65,49.43 657.66,52.41 656.89,54.26 C654.96,58.93 655.39,257.62 657.35,262.27 C659.41,267.15 666.02,273.40 670.53,274.70 C678.37,276.98 687.13,277.28 694.01,275.51 C700.79,273.76 704.21,271.39 706.63,266.74 C708.15,263.81 708.71,250.95 708.03,234.50 C707.50,221.66 708.69,213.00 710.98,213.00 C712.84,213.00 717.51,218.31 722.43,226.00 C724.01,228.48 727.39,232.98 729.95,236.00 C732.51,239.02 737.68,246.23 741.45,252.00 C749.96,265.03 760.61,275.77 766.53,277.27 ZM 944.87 276.98 C953.61,278.46 956.39,278.14 961.05,275.13 C966.97,271.30 972.20,265.61 975.39,259.51 C980.19,250.32 978.63,245.66 965.05,228.61 C964.20,227.54 958.77,221.23 952.99,214.58 C939.99,199.65 933.00,190.75 933.00,189.16 C933.00,188.49 933.67,187.68 934.49,187.36 C935.32,187.05 935.79,186.47 935.54,186.07 C935.30,185.67 938.27,182.23 942.15,178.42 C953.37,167.40 964.85,154.14 970.67,145.50 C974.18,140.28 975.00,131.84 972.47,126.91 C968.31,118.80 959.63,111.62 952.73,110.59 C947.39,109.79 939.65,112.01 934.81,115.73 C932.82,117.25 928.11,122.06 924.35,126.42 C920.58,130.77 915.08,137.07 912.13,140.42 C909.17,143.76 905.06,148.99 902.99,152.04 C898.35,158.84 888.31,167.71 886.86,166.26 C886.22,165.62 885.86,146.82 885.85,113.65 C885.83,74.52 885.52,60.85 884.53,57.11 C882.75,50.37 878.54,45.37 873.08,43.51 C868.02,41.79 850.62,41.43 846.57,42.97 C842.72,44.44 834.89,52.05 833.27,55.91 C832.06,58.80 831.86,74.80 831.95,160.90 L 832.06 262.48 L 834.68 266.26 C836.47,268.84 839.39,271.05 843.90,273.23 C849.94,276.15 851.35,276.42 860.50,276.46 C873.03,276.51 876.98,274.82 881.45,267.50 L 884.50 262.50 L 884.50 241.21 C884.51,224.40 884.79,219.75 885.86,219.09 C886.71,218.56 886.96,217.46 886.54,216.12 C885.38,212.47 888.77,213.62 893.06,218.34 C898.05,223.82 902.45,229.86 914.65,248.00 C928.31,268.31 935.74,275.44 944.87,276.98 ZM 1047.00 279.87 C1029.25,277.75 1016.42,270.74 1008.07,258.60 C1001.12,248.50 998.84,229.20 1003.01,215.70 C1005.38,208.03 1012.13,198.38 1018.24,193.92 C1032.66,183.40 1055.62,177.02 1079.13,177.01 C1091.75,177.00 1092.60,176.47 1091.52,169.26 C1091.13,166.64 1090.06,163.22 1089.15,161.65 C1083.91,152.64 1062.32,151.53 1040.01,159.11 C1029.94,162.54 1026.03,162.71 1021.14,159.94 C1015.27,156.62 1011.84,150.93 1011.25,143.48 C1010.26,131.25 1014.16,122.98 1023.01,118.50 C1040.54,109.61 1084.51,106.12 1104.98,111.99 C1126.50,118.16 1140.55,131.56 1145.41,150.56 C1148.12,161.18 1148.98,178.38 1148.99,222.29 C1149.00,262.95 1148.90,265.27 1147.02,268.96 C1140.75,281.25 1111.53,282.44 1101.57,270.81 C1099.61,268.52 1098.00,266.27 1098.00,265.82 C1098.00,263.99 1094.95,265.20 1090.84,268.65 C1080.50,277.35 1063.12,281.80 1047.00,279.87 ZM 328.83 279.98 C304.05,275.80 288.86,261.81 283.27,238.04 C281.69,231.31 281.50,224.68 281.50,176.50 C281.50,128.44 281.25,120.02 285.32,116.16 C286.44,115.10 287.88,114.39 289.76,113.29 C294.31,110.61 295.03,110.50 308.00,110.50 C320.41,110.50 321.90,110.70 326.45,113.00 C329.17,114.38 332.77,117.23 334.45,119.34 L 337.50 123.18 L 338.00 170.34 C338.55,221.96 338.34,220.20 344.66,226.19 C352.84,233.93 365.58,232.36 373.40,222.66 L 376.50 218.82 L 377.15 195.66 C377.51,182.92 377.85,161.34 377.90,147.70 C378.01,120.38 378.23,119.21 384.25,114.63 C389.20,110.86 395.56,109.69 408.27,110.22 C423.33,110.84 429.46,113.55 433.84,121.50 C435.33,124.21 435.49,131.33 435.50,195.00 C435.50,258.14 435.98,268.51 431.16,272.50 C429.76,273.66 427.92,274.28 425.49,275.50 C420.03,278.23 418.61,278.50 409.50,278.50 C400.55,278.50 398.90,278.20 393.75,275.67 C389.73,273.70 387.07,271.52 384.95,268.42 C383.27,265.99 381.68,264.00 381.41,264.00 C381.14,264.00 378.56,265.77 375.69,267.94 C362.38,277.99 344.41,282.61 328.83,279.98 ZM 1042.00 275.96 C1046.68,276.37 1055.10,276.77 1060.71,276.85 C1072.87,277.03 1077.87,275.43 1087.95,268.13 C1091.55,265.52 1095.02,263.07 1095.66,262.69 C1096.34,262.28 1098.43,263.71 1100.66,266.08 C1107.24,273.09 1110.85,274.41 1123.50,274.46 C1133.77,274.50 1134.82,274.31 1139.23,271.72 C1141.83,270.19 1144.44,268.04 1145.03,266.95 C1145.72,265.65 1146.02,255.93 1145.88,239.23 C1145.77,225.08 1145.86,201.24 1146.09,186.25 C1146.31,171.26 1146.16,159.00 1145.75,159.00 C1145.34,159.00 1145.00,158.15 1145.00,157.11 C1145.00,153.13 1140.62,141.28 1137.31,136.28 C1131.34,127.29 1116.11,116.76 1103.26,112.76 C1097.47,110.96 1094.12,110.67 1080.00,110.74 C1054.61,110.86 1034.65,113.95 1026.50,119.01 C1012.32,127.80 1008.08,147.63 1018.61,155.91 C1021.83,158.44 1028.39,158.67 1036.77,156.54 C1045.72,154.27 1061.99,151.99 1068.54,152.10 C1084.44,152.35 1090.89,156.65 1091.80,167.56 C1092.61,177.32 1092.11,177.66 1076.15,178.29 C1067.36,178.63 1059.83,179.52 1055.00,180.79 C1041.14,184.43 1029.88,188.02 1025.83,190.09 C1018.02,194.07 1011.79,201.13 1005.34,213.31 C1004.70,214.51 1003.60,218.99 1002.89,223.25 C1001.85,229.56 1001.85,232.44 1002.90,238.75 C1006.78,262.06 1019.30,273.98 1042.00,275.96 ZM 327.00 277.45 C337.50,279.08 339.51,279.12 348.00,277.86 C356.39,276.62 366.35,272.16 374.71,265.90 C377.57,263.75 380.61,262.00 381.46,262.00 C382.31,262.00 384.69,263.86 386.74,266.14 C393.48,273.59 406.93,277.19 418.92,274.75 C424.88,273.54 425.57,273.11 428.54,268.81 C431.55,264.44 431.77,263.49 432.41,252.33 C432.77,245.83 433.13,215.07 433.20,184.00 C433.32,129.57 433.25,127.33 431.33,123.00 C428.93,117.58 422.71,113.76 413.57,112.09 C397.29,109.11 384.94,112.47 380.82,121.01 C379.34,124.09 379.09,129.90 378.78,170.00 C378.46,210.75 378.24,215.92 376.66,219.49 C371.99,230.09 359.65,235.86 349.73,232.09 C345.91,230.64 339.86,224.92 338.37,221.35 C335.97,215.59 334.95,196.01 335.23,160.50 C335.45,131.51 335.72,123.64 331.93,119.56 C330.30,117.80 327.91,116.74 324.46,115.00 C317.83,111.66 317.01,111.50 307.00,111.50 C297.80,111.50 295.88,111.81 291.50,114.00 C287.80,115.85 285.99,117.54 284.55,120.49 C282.70,124.29 282.61,126.98 282.64,177.99 C282.66,223.68 282.59,233.49 285.79,242.07 C286.77,244.67 288.04,247.16 289.71,250.50 C294.50,260.09 297.15,263.35 303.80,267.85 C312.13,273.48 318.54,276.14 327.00,277.45 ZM 1341.52 259.84 C1349.81,252.57 1351.77,241.89 1346.33,233.54 L 1343.39 229.01 L 1347.70 220.26 C1353.37,208.72 1355.25,200.82 1355.26,188.50 C1355.26,180.77 1354.76,177.03 1353.04,172.00 C1350.23,163.78 1343.35,153.67 1337.05,148.50 C1332.90,145.09 1332.08,143.83 1331.54,140.00 C1328.53,118.77 1320.61,105.46 1307.27,99.20 C1301.96,96.72 1300.50,96.50 1289.00,96.50 C1277.25,96.50 1276.17,96.67 1271.00,99.32 C1259.34,105.30 1252.89,114.75 1247.98,133.00 L 1246.23 139.50 L 1239.05 139.14 C1232.61,138.82 1231.60,139.02 1229.32,141.14 C1226.20,144.04 1222.60,151.69 1219.33,162.40 C1215.93,173.53 1215.70,189.19 1218.78,200.12 C1228.15,233.43 1260.96,254.46 1296.74,250.08 L 1305.31 249.03 L 1310.91 253.03 C1319.87,259.44 1327.84,263.00 1333.22,263.00 C1337.08,263.00 1338.58,262.43 1341.52,259.84 ZM 205.50 321.07 C197.48,318.21 189.00,313.60 177.88,306.07 C166.41,298.30 161.05,293.59 153.05,284.25 L 147.70 278.00 L 138.42 278.00 C87.72,278.00 49.54,250.89 35.64,205.00 C31.57,191.57 30.01,179.29 30.00,160.63 C30.00,133.14 33.61,115.69 43.37,96.04 C49.02,84.68 52.74,79.34 61.20,70.42 C74.84,56.07 94.82,45.68 116.00,41.92 C127.34,39.91 156.62,40.19 166.00,42.40 C168.40,42.96 170.74,43.56 173.00,44.18 C165.33,42.39 157.57,42.01 142.18,42.03 C117.76,42.06 111.18,43.23 95.00,50.47 C76.15,58.91 70.90,62.30 61.70,71.96 C54.13,79.92 52.45,82.43 46.15,95.19 C33.04,121.79 30.32,135.11 31.24,168.35 C31.63,182.48 32.22,188.38 33.91,195.00 C38.80,214.11 50.17,236.00 60.18,245.60 C66.08,251.25 76.14,258.91 80.00,260.70 C81.38,261.34 85.51,263.25 89.19,264.95 C105.68,272.57 115.32,274.80 139.29,276.54 L 149.07 277.24 L 153.43 282.87 C159.01,290.07 161.99,292.71 170.00,297.51 C173.57,299.65 180.06,304.04 184.42,307.27 C193.70,314.13 196.28,315.55 205.00,318.58 C211.63,320.89 218.30,320.98 222.34,318.82 C226.42,316.63 232.38,310.27 234.10,306.26 C235.11,303.92 236.23,298.04 236.59,293.20 C237.62,279.57 235.04,276.10 220.41,271.44 C211.67,268.66 206.51,265.82 204.60,262.76 C203.68,261.28 205.19,259.39 214.54,250.26 C227.68,237.43 231.57,231.92 237.32,218.00 C239.71,212.23 242.16,206.56 242.77,205.42 C243.39,204.28 245.14,198.20 246.67,191.92 C249.31,181.13 249.46,179.27 249.43,158.00 C249.39,132.17 248.13,122.99 242.48,107.38 C235.02,86.77 226.65,75.40 209.50,62.62 C199.75,55.35 194.06,51.72 188.02,49.11 C205.13,55.80 217.85,64.99 228.06,77.76 C238.27,90.51 243.94,102.62 248.77,121.94 C251.25,131.88 251.41,133.95 251.45,157.00 C251.50,183.63 250.87,188.89 245.77,204.50 C239.21,224.54 229.52,239.79 214.75,253.28 C209.91,257.71 206.09,261.76 206.26,262.29 C206.44,262.81 211.30,265.11 217.08,267.40 C237.91,275.66 240.62,278.68 239.81,292.72 C239.10,305.00 231.59,318.18 223.34,321.63 C218.93,323.47 211.59,323.24 205.50,321.07 ZM 1080.50 238.12 C1082.70,237.11 1085.74,235.04 1087.25,233.51 C1089.83,230.90 1090.00,230.19 1090.00,221.88 C1090.00,213.21 1089.95,213.03 1087.42,212.39 C1081.26,210.85 1065.77,214.09 1061.70,217.77 C1059.53,219.73 1057.04,224.21 1056.46,227.19 C1056.79,219.63 1058.72,216.90 1066.00,213.25 C1070.68,210.91 1072.74,210.50 1079.84,210.50 C1087.53,210.50 1088.34,210.70 1090.21,213.00 C1092.02,215.23 1092.17,216.37 1091.58,223.49 C1090.81,232.77 1088.95,235.49 1081.03,238.89 C1074.20,241.83 1069.49,242.22 1061.49,240.51 C1058.22,239.81 1056.40,235.61 1056.42,228.90 C1056.75,231.86 1058.89,235.77 1061.51,237.83 C1065.10,240.65 1074.66,240.80 1080.50,238.12 ZM 104.62 117.19 C105.74,114.85 107.03,112.63 108.45,110.58 C104.61,116.31 101.71,123.51 99.81,132.06 C97.12,144.21 96.89,169.50 99.37,181.00 C101.42,190.52 102.81,195.93 104.67,200.05 C104.66,200.03 104.65,200.02 104.65,200.00 C103.47,197.52 102.15,195.24 101.73,194.93 C100.16,193.76 97.01,180.35 95.90,170.09 C95.26,164.13 95.04,155.38 95.41,150.08 C96.11,140.01 98.67,128.00 100.12,128.00 C100.60,128.00 101.00,127.26 101.00,126.35 C101.00,125.45 102.63,121.33 104.62,117.19 ZM 524.98 218.81 C523.75,215.86 523.00,212.83 523.00,210.18 C523.00,209.07 522.54,208.01 521.97,207.82 C520.16,207.22 520.34,181.29 522.19,175.41 C525.60,164.60 531.52,156.91 537.61,155.38 C539.27,154.97 541.99,154.94 544.85,155.19 C540.42,155.24 535.99,157.15 531.64,160.90 C528.95,163.22 525.42,170.68 524.12,176.80 C522.43,184.79 522.68,211.08 524.51,217.38 C524.65,217.86 524.80,218.34 524.98,218.81 ZM 1283.50 207.00 C1283.14,206.42 1284.18,206.00 1286.00,206.00 C1287.82,206.00 1288.86,206.42 1288.50,207.00 C1288.16,207.55 1287.04,208.00 1286.00,208.00 C1284.96,208.00 1283.84,207.55 1283.50,207.00 ZM 563.91 169.71 C564.42,171.07 564.85,172.48 565.16,173.87 C565.41,175.04 565.66,177.10 565.86,179.67 C565.46,175.62 564.84,172.44 563.91,169.71 ZM 552.89 156.66 C553.67,156.90 554.35,157.16 554.89,157.45 C555.91,157.97 556.93,158.78 557.93,159.81 C556.48,158.42 554.85,157.40 552.89,156.66 ZM 127.93 219.69 C124.71,218.78 121.63,217.40 118.77,215.63 C121.66,217.40 124.81,218.81 127.93,219.69 Z" fill="rgba(157,122,83,1)"/>
<path d="M 205.00 318.58 C196.28,315.55 193.70,314.13 184.42,307.27 C180.06,304.04 173.57,299.65 170.00,297.51 C161.99,292.71 159.01,290.07 153.43,282.87 L 149.07 277.24 L 139.29 276.54 C115.32,274.80 105.68,272.57 89.19,264.95 C85.51,263.25 81.38,261.34 80.00,260.70 C76.14,258.91 66.08,251.25 60.18,245.60 C50.17,236.00 38.80,214.11 33.91,195.00 C32.22,188.38 31.63,182.48 31.24,168.35 C30.32,135.11 33.04,121.79 46.15,95.19 C52.45,82.43 54.13,79.92 61.70,71.96 C70.90,62.30 76.15,58.91 95.00,50.47 C111.18,43.23 117.76,42.06 142.18,42.03 C164.51,42.00 170.79,42.83 184.02,47.54 C191.80,50.32 197.64,53.78 209.50,62.62 C226.65,75.40 235.02,86.77 242.48,107.38 C248.13,122.99 249.39,132.17 249.43,158.00 C249.46,179.27 249.31,181.13 246.67,191.92 C245.14,198.20 243.39,204.28 242.77,205.42 C242.16,206.56 239.71,212.23 237.32,218.00 C231.57,231.92 227.68,237.43 214.54,250.26 C205.19,259.39 203.68,261.28 204.60,262.76 C206.51,265.82 211.67,268.66 220.41,271.44 C235.04,276.10 237.62,279.57 236.59,293.20 C236.23,298.04 235.11,303.92 234.10,306.26 C232.38,310.27 226.42,316.63 222.34,318.82 C218.30,320.98 211.63,320.89 205.00,318.58 ZM 158.37 217.94 C169.88,213.41 177.77,202.28 182.13,184.42 C183.92,177.10 184.32,172.46 184.36,158.50 C184.42,138.42 182.44,127.85 176.34,115.50 C171.80,106.32 166.52,101.14 158.42,97.90 C153.31,95.87 150.78,95.54 140.00,95.52 C128.72,95.50 127.01,95.74 122.50,97.96 C115.28,101.51 108.82,108.45 104.62,117.19 C102.63,121.33 101.00,125.45 101.00,126.35 C101.00,127.26 100.60,128.00 100.12,128.00 C98.67,128.00 96.11,140.01 95.41,150.08 C95.04,155.38 95.26,164.13 95.90,170.09 C97.01,180.35 100.16,193.76 101.73,194.93 C102.15,195.24 103.47,197.52 104.65,200.00 C109.16,209.46 117.90,216.86 127.93,219.69 C135.04,221.71 151.14,220.78 158.37,217.94 ZM 1352.00 317.12 C1344.11,315.06 1333.20,309.42 1326.47,303.92 C1323.74,301.68 1316.26,294.69 1309.85,288.38 C1299.52,278.21 1297.91,276.99 1295.60,277.56 C1294.14,277.93 1293.00,277.79 1293.00,277.25 C1293.00,276.71 1289.06,276.01 1284.25,275.68 C1267.47,274.52 1260.43,273.08 1248.82,268.40 C1236.88,263.59 1227.65,259.17 1223.19,256.14 C1221.71,255.13 1218.55,253.03 1216.17,251.47 C1204.81,243.99 1194.57,228.57 1187.97,209.00 C1180.92,188.11 1178.65,172.86 1179.26,150.50 C1179.81,130.60 1183.49,116.75 1193.57,96.67 C1201.06,81.77 1208.33,72.68 1220.50,63.01 C1227.82,57.19 1235.77,53.51 1254.31,47.37 L 1268.50 42.67 L 1287.00 42.26 C1306.23,41.85 1306.52,41.88 1326.00,47.09 C1334.52,49.36 1343.57,53.01 1349.97,56.75 C1368.14,67.35 1386.67,92.24 1391.92,113.08 C1392.97,117.25 1394.83,129.60 1396.05,140.52 C1398.04,158.27 1398.15,161.70 1397.12,172.93 C1396.11,183.84 1395.22,187.68 1390.36,202.00 C1384.00,220.76 1379.38,231.08 1375.31,235.66 C1371.03,240.48 1354.60,254.00 1353.02,254.00 C1352.72,254.00 1352.44,251.41 1352.40,248.25 C1352.36,245.09 1351.72,238.81 1350.99,234.31 C1349.68,226.23 1349.70,225.93 1352.88,213.98 C1356.99,198.55 1358.14,181.45 1355.63,173.09 C1353.03,164.40 1348.31,156.97 1340.88,149.85 C1333.95,143.21 1333.94,143.19 1332.55,135.31 C1329.16,115.99 1319.47,102.67 1304.26,96.42 C1299.59,94.50 1296.68,94.04 1288.86,94.02 C1276.05,93.99 1270.68,95.79 1263.12,102.63 C1256.09,108.99 1251.98,115.13 1248.48,124.53 C1244.57,134.99 1242.62,136.48 1232.17,136.94 C1231.44,136.97 1229.08,138.72 1226.94,140.83 C1223.74,143.97 1222.39,146.61 1219.51,155.39 C1215.05,169.01 1213.62,178.28 1214.31,189.00 C1214.96,199.01 1217.36,206.05 1224.15,217.85 C1231.48,230.60 1235.82,235.77 1243.50,240.90 C1257.31,250.13 1261.21,251.16 1285.09,251.92 L 1304.67 252.54 L 1313.30 258.34 C1320.65,263.27 1322.93,264.28 1328.57,265.08 C1336.05,266.14 1341.67,265.09 1346.37,261.74 L 1349.25 259.68 L 1350.88 261.79 C1351.77,262.95 1357.90,266.18 1364.50,268.97 C1377.67,274.54 1381.23,277.44 1383.00,284.02 C1384.95,291.24 1381.75,305.42 1376.82,311.40 C1373.37,315.59 1366.55,319.03 1361.93,318.91 C1360.05,318.86 1355.57,318.06 1352.00,317.12 ZM 327.00 277.45 C318.54,276.14 312.13,273.48 303.80,267.85 C297.15,263.35 294.50,260.09 289.71,250.50 C282.53,236.14 282.67,237.53 282.64,177.99 C282.61,126.98 282.70,124.29 284.55,120.49 C285.99,117.54 287.80,115.85 291.50,114.00 C295.88,111.81 297.80,111.50 307.00,111.50 C317.01,111.50 317.83,111.66 324.46,115.00 C335.96,120.79 335.55,119.04 335.23,160.50 C334.95,196.01 335.97,215.59 338.37,221.35 C339.86,224.92 345.91,230.64 349.73,232.09 C359.65,235.86 371.99,230.09 376.66,219.49 C378.24,215.92 378.46,210.75 378.78,170.00 C379.09,129.90 379.34,124.09 380.82,121.01 C384.94,112.47 397.29,109.11 413.57,112.09 C422.71,113.76 428.93,117.58 431.33,123.00 C433.25,127.33 433.32,129.57 433.20,184.00 C433.13,215.07 432.77,245.83 432.41,252.33 C431.77,263.49 431.55,264.44 428.54,268.81 C425.57,273.11 424.88,273.54 418.92,274.75 C406.93,277.19 393.48,273.59 386.74,266.14 C384.69,263.86 382.31,262.00 381.46,262.00 C380.61,262.00 377.57,263.75 374.71,265.90 C366.35,272.16 356.39,276.62 348.00,277.86 C339.51,279.12 337.50,279.08 327.00,277.45 ZM 535.00 277.33 C522.36,276.43 505.29,270.88 496.00,264.65 C486.26,258.12 475.08,243.34 470.44,230.84 C465.72,218.13 464.76,211.95 464.68,193.50 C464.60,177.95 464.88,174.45 466.74,167.80 C470.01,156.12 475.20,145.82 482.08,137.40 C489.79,127.96 497.37,121.80 506.68,117.40 C516.91,112.56 525.34,110.90 542.30,110.39 C554.78,110.02 558.44,110.27 565.67,111.98 C586.59,116.95 600.67,126.21 611.85,142.35 C615.73,147.94 616.86,150.69 620.33,163.00 C627.60,188.72 623.23,225.33 610.49,245.50 C606.29,252.14 591.73,265.77 584.94,269.42 C581.95,271.03 579.28,272.65 579.00,273.03 C578.72,273.41 577.15,273.96 575.50,274.26 C573.85,274.55 568.97,275.51 564.66,276.39 C557.54,277.85 547.00,278.19 535.00,277.33 ZM 553.55 230.51 C559.05,227.75 561.74,224.20 564.59,216.00 C566.16,211.47 566.49,207.76 566.45,195.00 C566.42,186.48 565.84,176.97 565.16,173.87 C563.59,166.82 559.10,159.62 554.89,157.45 C551.27,155.57 541.50,154.41 537.61,155.38 C531.52,156.91 525.60,164.60 522.19,175.41 C520.34,181.29 520.16,207.22 521.97,207.82 C522.54,208.01 523.00,209.07 523.00,210.18 C523.00,217.92 529.41,228.97 535.42,231.58 C540.45,233.77 547.95,233.33 553.55,230.51 ZM 766.53 277.27 C760.61,275.77 749.96,265.03 741.45,252.00 C737.68,246.23 732.51,239.02 729.95,236.00 C727.39,232.98 724.01,228.48 722.43,226.00 C717.51,218.31 712.84,213.00 710.98,213.00 C708.69,213.00 707.50,221.66 708.03,234.50 C708.71,250.95 708.15,263.81 706.63,266.74 C704.21,271.39 700.79,273.76 694.01,275.51 C687.13,277.28 678.37,276.98 670.53,274.70 C666.02,273.40 659.41,267.15 657.35,262.27 C655.39,257.62 654.96,58.93 656.89,54.26 C657.66,52.41 660.65,49.43 664.34,46.83 C670.37,42.59 670.69,42.49 679.67,42.16 C694.01,41.62 704.30,45.89 707.65,53.78 C708.78,56.42 709.07,66.27 709.14,104.53 C709.19,134.82 709.58,152.00 710.20,152.00 C710.77,152.00 711.04,154.67 710.85,158.43 C710.67,161.96 710.77,165.10 711.07,165.40 C711.82,166.15 726.43,152.08 727.96,149.13 C729.54,146.11 740.89,132.86 746.92,127.00 C749.47,124.53 752.90,120.93 754.55,119.00 C756.20,117.07 759.09,114.21 760.98,112.64 C764.27,109.90 764.70,109.81 771.44,110.47 C783.73,111.69 790.34,115.77 795.02,125.04 C798.85,132.63 799.13,140.65 795.74,146.14 C794.51,148.15 785.86,157.76 776.51,167.51 C767.17,177.25 758.94,186.07 758.23,187.09 C756.35,189.76 758.62,193.69 767.88,203.85 C772.07,208.44 777.53,214.76 780.00,217.89 C782.47,221.02 787.53,227.07 791.24,231.31 C803.01,244.80 804.49,250.61 798.78,260.73 C792.43,271.99 783.57,278.09 773.89,277.88 C770.93,277.82 767.61,277.54 766.53,277.27 ZM 944.87 276.98 C935.74,275.44 928.31,268.31 914.65,248.00 C902.45,229.86 898.05,223.82 893.06,218.34 C888.77,213.62 885.38,212.47 886.54,216.12 C886.96,217.46 886.71,218.56 885.86,219.09 C884.79,219.75 884.51,224.40 884.50,241.21 L 884.50 262.50 L 881.45 267.50 C876.98,274.82 873.03,276.51 860.50,276.46 C851.35,276.42 849.94,276.15 843.90,273.23 C839.39,271.05 836.47,268.84 834.68,266.26 L 832.06 262.48 L 831.95 160.90 C831.86,74.80 832.06,58.80 833.27,55.91 C834.89,52.05 842.72,44.44 846.57,42.97 C850.62,41.43 868.02,41.79 873.08,43.51 C878.54,45.37 882.75,50.37 884.53,57.11 C885.52,60.85 885.83,74.52 885.85,113.65 C885.86,146.82 886.22,165.62 886.86,166.26 C888.31,167.71 898.35,158.84 902.99,152.04 C905.06,148.99 909.17,143.76 912.13,140.42 C915.08,137.07 920.58,130.77 924.35,126.42 C928.11,122.06 932.82,117.25 934.81,115.73 C939.65,112.01 947.39,109.79 952.73,110.59 C959.63,111.62 968.31,118.80 972.47,126.91 C975.00,131.84 974.18,140.28 970.67,145.50 C964.85,154.14 953.37,167.40 942.15,178.42 C938.27,182.23 935.30,185.67 935.54,186.07 C935.79,186.47 935.32,187.05 934.49,187.36 C933.67,187.68 933.00,188.49 933.00,189.16 C933.00,190.75 939.99,199.65 952.99,214.58 C958.77,221.23 964.20,227.54 965.05,228.61 C978.63,245.66 980.19,250.32 975.39,259.51 C972.20,265.61 966.97,271.30 961.05,275.13 C956.39,278.14 953.61,278.46 944.87,276.98 ZM 1042.00 275.96 C1019.30,273.98 1006.78,262.06 1002.90,238.75 C1001.85,232.44 1001.85,229.56 1002.89,223.25 C1003.60,218.99 1004.70,214.51 1005.34,213.31 C1011.79,201.13 1018.02,194.07 1025.83,190.09 C1029.88,188.02 1041.14,184.43 1055.00,180.79 C1059.83,179.52 1067.36,178.63 1076.15,178.29 C1092.11,177.66 1092.61,177.32 1091.80,167.56 C1090.89,156.65 1084.44,152.35 1068.54,152.10 C1061.99,151.99 1045.72,154.27 1036.77,156.54 C1028.39,158.67 1021.83,158.44 1018.61,155.91 C1008.08,147.63 1012.32,127.80 1026.50,119.01 C1034.65,113.95 1054.61,110.86 1080.00,110.74 C1094.12,110.67 1097.47,110.96 1103.26,112.76 C1116.11,116.76 1131.34,127.29 1137.31,136.28 C1140.62,141.28 1145.00,153.13 1145.00,157.11 C1145.00,158.15 1145.34,159.00 1145.75,159.00 C1146.16,159.00 1146.31,171.26 1146.09,186.25 C1145.86,201.24 1145.77,225.08 1145.88,239.23 C1146.02,255.93 1145.72,265.65 1145.03,266.95 C1144.44,268.04 1141.83,270.19 1139.23,271.72 C1134.82,274.31 1133.77,274.50 1123.50,274.46 C1110.85,274.41 1107.24,273.09 1100.66,266.08 C1098.43,263.71 1096.34,262.28 1095.66,262.69 C1095.02,263.07 1091.55,265.52 1087.95,268.13 C1077.87,275.43 1072.87,277.03 1060.71,276.85 C1055.10,276.77 1046.68,276.37 1042.00,275.96 ZM 1081.03 238.89 C1088.95,235.49 1090.81,232.77 1091.58,223.49 C1092.17,216.37 1092.02,215.23 1090.21,213.00 C1088.34,210.70 1087.53,210.50 1079.84,210.50 C1072.74,210.50 1070.68,210.91 1066.00,213.25 C1058.49,217.01 1056.67,219.80 1056.44,227.94 C1056.23,235.21 1058.07,239.78 1061.49,240.51 C1069.49,242.22 1074.20,241.83 1081.03,238.89 Z" fill="rgba(183,143,97,1)"/>
</g>
</svg>